<svg width="40" height="40" viewBox="0 0 40 40" fill="none" xmlns="http://www.w3.org/2000/svg">
<path d="M23.5715 18.5714H20.7143H20.3572V9.28564L23.5715 9.99993V18.5714Z" fill="#90949C"/>
<path d="M20.3572 30.3571V21.4285H23.5715V29.9999C23 30.5714 21.1905 30.4761 20.3572 30.3571Z" fill="#90949C"/>
<path d="M26.4286 28.2142V21.4285H30.3572C30.7143 21.4285 30.3729 21.8934 30 23.5714C29.4286 26.1428 27.381 27.738 26.4286 28.2142Z" fill="#90949C"/>
<path d="M26.4286 18.5714V11.7856C29.7539 13.4452 30.4332 17.0009 30.3572 18.5714H26.4286Z" fill="#90949C"/>
<path fill-rule="evenodd" clip-rule="evenodd" d="M20 0C16.3642 0 13.2174 2.46248 11.0363 6.05505C8.84033 9.67195 7.5 14.6041 7.5 20C7.5 25.3959 8.84033 30.3281 11.0363 33.945C13.2174 37.5375 16.3642 40 20 40C23.6358 40 26.7826 37.5375 28.9637 33.9449C31.1597 30.328 32.5 25.3958 32.5 20C32.5 14.6042 31.1597 9.67202 28.9637 6.0551C26.7826 2.46252 23.6358 0 20 0ZM9.57425 20C9.57425 14.9171 10.8409 10.3625 12.8142 7.11229C14.8023 3.83774 17.387 2.05279 20 2.05279C22.613 2.05279 25.1977 3.83777 27.1857 7.11235C29.1591 10.3626 30.4258 14.9172 30.4258 20C30.4258 25.0828 29.1591 29.6374 27.1857 32.8877C25.1977 36.1622 22.613 37.9472 20 37.9472C17.387 37.9472 14.8023 36.1623 12.8142 32.8877C10.8409 29.6375 9.57425 25.0829 9.57425 20ZM19.9629 0.604858C16.6559 0.604858 13.6898 2.84956 11.5707 6.33991C9.44633 9.83895 8.12966 14.6498 8.12966 19.945C8.12966 25.2403 9.44633 30.0511 11.5707 33.5502C13.6898 37.0405 16.6559 39.2852 19.9629 39.2852C23.27 39.2852 26.2361 37.0405 28.3552 33.5501C30.4796 30.051 31.7962 25.2402 31.7962 19.945C31.7962 14.6498 30.4796 9.83902 28.3552 6.33997C26.2361 2.8496 23.27 0.604858 19.9629 0.604858ZM8.87047 19.945C8.87047 14.7616 10.1608 10.0856 12.2057 6.7175C14.2558 3.34073 17.0212 1.338 19.9629 1.338C22.9047 1.338 25.67 3.34076 27.7202 6.71755C29.7651 10.0857 31.0554 14.7616 31.0554 19.945C31.0554 25.1284 29.7651 29.8044 27.7202 33.1725C25.67 36.5493 22.9047 38.5521 19.9629 38.5521C17.0212 38.5521 14.2558 36.5493 12.2057 33.1726C10.1608 29.8045 8.87047 25.1285 8.87047 19.945Z" fill="#90949C"/>
<path d="M16.1133 9.80322V29.6957L18.0343 30.4289V9.80322H16.1133Z" fill="#90949C"/>
<path d="M12.2611 12.4426V27.4964L14.1822 28.9627V10.9763L12.2611 12.4426Z" fill="#90949C"/>
<path d="M9.44604 17.1347V23.0976L10.33 24.8572V14.9353L9.44604 17.1347Z" fill="#90949C"/>
<path fill-rule="evenodd" clip-rule="evenodd" d="M24.0399 18.2625H24.0374V10.231H23.2966V18.2625H19.9667V18.9895H24.0399V18.2625ZM20.3371 20.8906V21.5579H23.2966V29.6958H24.0374V21.5579H24.0399V20.8906H20.3371ZM25.9609 21.5579H25.9635V28.3028H26.7043V21.5579H30.3898V20.8906H25.9609V21.5579ZM30.7602 18.9895H25.9609V18.2625H25.9635V11.6239H26.7043V18.2625H30.7602V18.9895Z" fill="#90949C"/>
<path fill-rule="evenodd" clip-rule="evenodd" d="M20.7038 9.1311V30.832H19.963V9.1311H20.7038Z" fill="#90949C"/>
<path fill-rule="evenodd" clip-rule="evenodd" d="M19.963 9.73607C14.2658 9.73607 9.6473 14.3068 9.6473 19.945C9.6473 25.5833 14.2658 30.154 19.963 30.154C25.6602 30.154 30.2786 25.5833 30.2786 19.945C30.2786 14.3068 25.6602 9.73607 19.963 9.73607ZM8.90649 19.945C8.90649 13.9019 13.8566 9.00293 19.963 9.00293C26.0693 9.00293 31.0194 13.9019 31.0194 19.945C31.0194 25.9882 26.0693 30.8871 19.963 30.8871C13.8566 30.8871 8.90649 25.9882 8.90649 19.945Z" fill="#90949C"/>
<path d="M14.5859 31.0845L14.6839 31.1196C15.3461 31.3565 15.6354 31.1109 15.7356 30.8823L16.2996 31.0843L15.1548 34.2169L14.4682 33.9712L15.2567 31.8136L14.4279 31.517L14.5859 31.0845ZM17.8352 32.8042C17.5258 32.7579 17.3985 32.5205 17.4283 32.3257C17.4652 32.0844 17.6608 31.9429 17.9857 31.9916C18.2177 32.0263 18.3844 32.2126 18.3462 32.4631C18.31 32.6996 18.1187 32.8466 17.8352 32.8042ZM18.9489 33.9722C19.0141 33.5454 18.8501 33.3073 18.5235 33.097C18.8387 33.0018 19.0046 32.7799 19.0479 32.4969C19.1173 32.0422 18.7769 31.5784 18.0189 31.4649C17.3796 31.3691 16.8275 31.6329 16.7417 32.1944C16.6949 32.5005 16.8177 32.7325 17.0867 32.9057C16.4943 33.0543 16.4276 33.4904 16.4022 33.6574C16.3334 34.1074 16.5739 34.7082 17.5175 34.8494C18.4868 34.9945 18.885 34.3898 18.9489 33.9722ZM18.2022 33.8889C18.1673 34.1162 17.9783 34.3869 17.602 34.3306C17.2719 34.2812 17.1027 34.0423 17.151 33.7268C17.2056 33.3696 17.4817 33.2543 17.7446 33.2936C18.1467 33.3539 18.2376 33.657 18.2022 33.8889ZM20.3358 32.7038C20.2958 32.2268 20.6267 32.1149 20.8138 32.0995C21.188 32.0689 21.3895 32.2876 21.4212 32.6664C21.4541 33.0592 21.1871 33.2458 20.9326 33.2667C20.657 33.2894 20.3777 33.204 20.3358 32.7038ZM19.8029 34.2117C19.9096 34.7348 20.3892 35.0252 21.0179 34.9735C21.6832 34.9189 22.324 34.4473 22.2163 33.1615C22.177 32.6939 22.0524 31.4565 20.7739 31.5614C20.0515 31.6206 19.5479 32.0433 19.6162 32.857C19.6627 33.4134 20.1137 33.8614 20.8206 33.8033C21.0701 33.7828 21.3513 33.7033 21.4987 33.4652L21.5098 33.4737C21.563 34.1708 21.2808 34.4247 20.9793 34.4494C20.7559 34.4677 20.5865 34.3826 20.5256 34.157L20.5253 34.1523L19.8029 34.2117ZM23.4469 32.2018C23.2907 31.7489 23.5839 31.5606 23.7617 31.5007C24.1172 31.3806 24.3665 31.5444 24.4904 31.9039C24.619 32.2769 24.4061 32.5224 24.1641 32.604C23.9026 32.6925 23.6108 32.6769 23.4469 32.2018ZM23.3012 33.7928C23.5334 34.2746 24.0701 34.4404 24.6673 34.2388C25.299 34.0255 25.8044 33.4136 25.3833 32.1923C25.2303 31.7483 24.8048 30.5781 23.5906 30.9882C22.9045 31.2199 22.5201 31.7513 22.7865 32.524C22.9686 33.0524 23.5164 33.3781 24.1877 33.1514C24.4246 33.0715 24.6777 32.9265 24.7621 32.6599L24.775 32.6655C24.9983 33.3288 24.787 33.643 24.5008 33.7398C24.2884 33.8115 24.1032 33.7699 23.9887 33.5656L23.9872 33.5612L23.3012 33.7928ZM20.1422 4.07223C19.1128 4.08909 18.2073 4.89026 18.2236 5.86314C18.2398 6.82927 19.1639 7.60067 20.2007 7.58367C20.7117 7.57531 21.1903 7.39422 21.5258 7.0822L22.0448 7.55361C21.5778 7.98117 20.923 8.2451 20.2045 8.25683C18.7234 8.28103 17.4907 7.2149 17.4683 5.8756C17.4459 4.5363 18.6201 3.42399 20.1309 3.39935C20.8493 3.38762 21.4977 3.61695 21.9715 4.04246L21.4685 4.53059C21.1227 4.22941 20.6606 4.06372 20.1422 4.07223ZM22.6298 8.48982L23.3706 6.14378L23.9632 8.92971H24.241L25.0004 7.17018L25.9078 9.8278L26.7598 10.4143L25.4263 5.86886L24.8892 5.55727L24.3151 7.09686L23.7965 4.54921L23.2224 4.25595L22.0371 8.3432L22.6298 8.48982ZM17.8331 8.36152L16.6848 4.25595L15.6848 4.82413L12.8512 10.5426L13.9994 9.80947L14.7402 8.32487L16.7774 7.55507L17.0738 8.54481L17.8331 8.36152ZM15.1106 7.4451L16.2218 5.22736L16.6108 6.85859L15.1106 7.4451Z" fill="#90949C"/>
</svg>
