<svg xmlns="http://www.w3.org/2000/svg" width="49" height="49" fill="none" viewBox="0 0 49 49">
    <path fill="#01247D" d="M2.243 15.26c-.24.6-.48 1.32-.72 2.04h3.72l-3-2.04zM46.643 33.74c.24-.72.48-1.32.72-2.04h-3.84l3.12 2.04zM7.403 41.42c2.76 2.76 6.12 4.8 9.84 6v-12.6l-9.84 6.6zM17.243 1.58c-3.84 1.2-7.2 3.24-9.84 6l9.84 6.6V1.58zM47.363 17.3c-.24-.72-.48-1.32-.72-2.04l-3 2.04h3.72zM31.643 47.42c3.72-1.2 7.08-3.24 9.84-6l-9.84-6.6v12.6zM1.523 31.7c.24.72.48 1.44.72 2.04l3.12-2.04h-3.84zM41.483 7.58c-2.76-2.76-6.12-4.8-9.84-6v12.6l9.84-6.6z"/>
    <path fill="#fff" d="M48.083 28.7h-19.44v19.44c1.08-.24 2.04-.48 3-.72v-12.6l9.84 6.6c1.08-1.08 2.16-2.4 3-3.72l-9.12-6h5.76l4.92 3.24c.24-.36.36-.84.6-1.2l-3.12-2.04h3.84c.36-.96.6-1.92.72-3zM17.243 1.58v12.6l-9.84-6.6c-1.08 1.08-2.04 2.28-2.88 3.6l9.12 6.12h-5.76l-5.04-3.36c-.24.48-.48.84-.6 1.32l3 2.04h-3.72c-.36.96-.6 2.04-.72 3h19.44V.86c-1.08.12-2.04.36-3 .72zM.803 28.7c.24 1.08.48 2.04.72 3h3.84l-3.12 2.04c.6 1.44 1.32 2.76 2.16 3.96l9.12-6h3.72v1.32l-10.92 7.32c.36.36.72.84 1.08 1.2l9.84-6.6v12.6c.96.36 2.04.6 3 .72V28.7H.803zM47.363 17.3h-3.72l3-2.04c-.6-1.44-1.32-2.88-2.16-4.08l-9.24 6.12h-3.6v-1.44l10.8-7.2c-.36-.36-.6-.72-.96-1.08l-9.84 6.6V1.58c-.96-.36-2.04-.6-3-.72V20.3h19.44c-.12-1.08-.36-2.04-.72-3z"/>
    <path fill="#CF142B" d="M48.083 20.3h-19.44V.86c-1.32-.24-2.76-.36-4.2-.36-1.44 0-2.88.12-4.2.36V20.3H.803c-.24 1.32-.36 2.76-.36 4.2 0 1.44.12 2.88.36 4.2h19.44v19.44c1.32.24 2.76.36 4.2.36 1.44 0 2.88-.12 4.2-.36V28.7h19.44c.24-1.32.36-2.76.36-4.2 0-1.44-.12-2.88-.36-4.2z"/>
    <path fill="#CF142B" d="M35.363 31.7l9.12 6c.6-.84 1.08-1.8 1.56-2.76l-4.92-3.24h-5.76zM31.643 17.3h3.6l9.24-6.12c-.6-.84-1.2-1.68-1.92-2.52l-10.8 7.2v1.44h-.12zM17.243 31.7h-3.72l-9.12 6c.6.84 1.2 1.68 1.92 2.52l10.92-7.32v-1.2zM13.643 17.3l-9.24-6.12c-.6.84-1.08 1.8-1.56 2.76l5.04 3.36h5.76z"/>
</svg>
