<svg width="16" height="16" viewBox="0 0 16 16" fill="none" xmlns="http://www.w3.org/2000/svg">
<mask id="mask0_818_20610" style="mask-type:alpha" maskUnits="userSpaceOnUse" x="0" y="0" width="16" height="16">
<path d="M12.5 0H3.5C1.567 0 0 1.567 0 3.5V12.5C0 14.433 1.567 16 3.5 16H12.5C14.433 16 16 14.433 16 12.5V3.5C16 1.567 14.433 0 12.5 0Z" fill="white"/>
</mask>
<g mask="url(#mask0_818_20610)">
<path d="M-4.33398 16.0582H5.49265V11.145L-4.33398 16.0582Z" fill="#41479B"/>
<path d="M10.8647 16.0582H20.6916L10.8647 11.145V16.0582Z" fill="#41479B"/>
<path d="M5.49265 -0.0583252H6.5671H9.79044H10.8649V4.85485L20.6918 -0.0585938H8.17877H-4.33398L5.49265 4.85485V-0.0583252Z" fill="#41479B"/>
<path d="M17.1548 10.686H24.2956V9.61157H9.79053V16.0583H10.865V11.1448L20.6919 16.0583L23.5749 17.4999L25.0163 14.6169L24.2956 14.2564L17.1548 10.686ZM11.1486 10.686H15.9536L24.2956 14.857V16.0583H21.8932L11.1486 10.686Z" fill="white"/>
<path d="M0.404035 10.686L-7.93799 14.8568V16.058H-5.53525L5.20924 10.686H0.404035Z" fill="#FF4B55"/>
<path d="M13.5509 5.31391L24.2954 -0.0585938H21.8929L11.1484 5.31391H13.5509Z" fill="#FF4B55"/>
<path d="M0.404035 5.31391H5.20924L-5.53525 -0.0585938H-7.93799V-0.0583252V1.14291L0.404035 5.31391Z" fill="#FF4B55"/>
<path d="M24.2954 14.8568L15.9536 10.686H11.1484L21.8929 16.058H24.2954V14.8568Z" fill="#FF4B55"/>
<path d="M6.56704 9.61157H-7.93801V10.686H-0.797225L-7.93801 14.2564L-8.65869 14.6169L-7.21732 17.4999L-4.33431 16.0583L5.49259 11.1448V16.0583H6.56704V9.61157ZM-7.93801 16.0583V14.857L0.404007 10.686H5.20894L-5.53554 16.0583H-7.93801Z" fill="white"/>
<path d="M10.865 -0.0583591H9.79053V6.38833H24.2956V5.31388H17.1548L24.2956 1.74349L25.0163 1.38328L24.2956 -0.0583591L23.5749 -1.5L20.6919 -0.0583591L10.865 4.85509V-0.0583591ZM24.2956 -0.0583591L13.5511 5.31388H11.1486L21.8932 -0.0583591H24.2956Z" fill="white"/>
<path d="M6.56704 6.38833V-0.0583596H5.49259V4.85482L-4.33404 -0.0586282L-7.21705 -1.5L-7.93801 -0.0586282V-0.0583596V-0.0586282H-5.53527L5.20921 5.31388H0.404008L-7.93801 1.14287V-0.0583596L-8.65869 1.38301L-7.93801 1.74349L-0.797225 5.31388H-7.93801V6.38833H6.56704Z" fill="white"/>
<path d="M9.79036 9.61169H24.2954V8.00002V6.38835H9.79036V-0.0583496H6.56702V6.38835H-7.93799V8.00002V9.61169H6.56702V16.0584H9.79036V9.61169Z" fill="#FF4B55"/>
</g>
</svg>
