<svg width="32" height="32" viewBox="0 0 32 32" fill="none" xmlns="http://www.w3.org/2000/svg">
    <g clip-path="url(#bt6bm6q5fa)">
        <path d="M31.99 10.44H0v11.12h31.99V10.44z" fill="#F5F5F5"/>
        <path d="M31.99 10.44V7a7 7 0 0 0-7-7h-18a7 7 0 0 0-7 7v3.44h32z" fill="#F79835"/>
        <path d="M-.01 21.56V25a7 7 0 0 0 7 7h18a7 7 0 0 0 7-7v-3.44h-32z" fill="#138943"/>
        <path d="M15.99 11.82a4.18 4.18 0 1 0 0 8.36 4.18 4.18 0 0 0 0-8.36zm3.39 4.76a.22.22 0 0 0 .21.14c-.04.176-.09.35-.15.52a.2.2 0 0 0-.2 0 .22.22 0 0 0 0 .41c-.07.159-.158.31-.26.45a.22.22 0 0 0-.23 0 .221.221 0 0 0-.12.29c.021.04.052.075.09.1-.12.13-.25.25-.38.37a.22.22 0 0 0-.27-.09.23.23 0 0 0-.08.23v.06c-.144.102-.298.19-.46.26a.221.221 0 0 0-.29-.12.22.22 0 0 0-.12.28c-.16.05-.324.09-.49.12a.417.417 0 0 1 0-.05.23.23 0 0 0-.29-.12.22.22 0 0 0-.13.23h-.52a.22.22 0 0 0 0-.11.22.22 0 0 0-.28-.12.231.231 0 0 0-.13.17 2.844 2.844 0 0 1-.5-.14.22.22 0 0 0-.048-.233.22.22 0 0 0-.242-.047.23.23 0 0 0-.12.12l-.44-.3a.22.22 0 0 0 0-.22.21.21 0 0 0-.37-.05 3.232 3.232 0 0 1-.37-.37.24.24 0 0 0 .07-.17.21.21 0 0 0-.22-.21.27.27 0 0 0-.12 0 3.145 3.145 0 0 1-.25-.44.2.2 0 0 0 .11-.19.22.22 0 0 0-.22-.22h-.06a3.64 3.64 0 0 1-.14-.5.2.2 0 0 0 .2-.21.21.21 0 0 0-.21-.22h-.05v-.54h.05a.21.21 0 0 0 .21-.22.22.22 0 0 0-.2-.22c.031-.177.078-.351.14-.52a.22.22 0 1 0 .16-.39c.104-.11.214-.213.33-.31a.21.21 0 0 0 .23 0 .22.22 0 0 0 .12-.28.18.18 0 0 0-.09-.1c.117-.136.243-.263.38-.38a.21.21 0 0 0 .27.09.22.22 0 0 0 .12-.28.18.18 0 0 0-.05-.07c.143-.102.293-.192.45-.27a.221.221 0 0 0 .29.12.22.22 0 0 0 .12-.28c.167-.056.338-.103.51-.14a.19.19 0 0 0 0 .08.221.221 0 0 0 .29.12.23.23 0 0 0 .13-.26h.54a.22.22 0 0 0 0 .14.209.209 0 0 0 .28.12.21.21 0 0 0 .14-.2c.167.028.331.072.49.13a.2.2 0 0 0 0 .17.209.209 0 0 0 .28.12.201.201 0 0 0 .12-.13c.166.078.327.168.48.27a.25.25 0 0 0-.07.26.22.22 0 0 0 .4 0c.137.119.267.246.39.38a.22.22 0 0 0 .18.39.21.21 0 0 0 .08-.06c.096.148.183.301.26.46a.221.221 0 0 0-.12.29.22.22 0 0 0 .28.12c.053.167.096.338.13.51h-.1a.21.21 0 0 0-.11.28.22.22 0 0 0 .27.13v.55a.22.22 0 0 0-.16 0 .21.21 0 0 0-.14.3z" fill="#2A2B7A"/>
        <path d="M16.67 16v-.12c.932-.17 1.839-.455 2.7-.85-.933.145-1.846.4-2.72.76v-.08c.866-.402 1.678-.91 2.42-1.51-.873.373-1.696.854-2.45 1.43l-.09-.12a11.18 11.18 0 0 0 2-2.06c-.749.58-1.42 1.251-2 2l-.06-.05a11.59 11.59 0 0 0 1.27-2.4 11.913 11.913 0 0 0-1.43 2.44l-.1-.05c.328-.884.55-1.804.66-2.74-.358.873-.61 1.787-.75 2.72h-.09c.122-.946.122-1.904 0-2.85a11.585 11.585 0 0 0 0 2.85h-.14a12.292 12.292 0 0 0-.74-2.69c.107.93.318 1.847.63 2.73-.42-.86-.937-1.668-1.54-2.41.336.86.766 1.682 1.28 2.45l-.06.05a12.083 12.083 0 0 0-2-2c.472.619.983 1.207 1.53 1.76a17.393 17.393 0 0 0-2.07-1 12.577 12.577 0 0 0 2.41 1.4v.07c-.87-.296-1.768-.5-2.68-.61.848.34 1.73.588 2.63.74v.07a12.22 12.22 0 0 0-2.79.07c.912.117 1.834.134 2.75.05a.502.502 0 0 0 0 .12c-.916.153-1.811.408-2.67.76a12.78 12.78 0 0 0 2.71-.64v.05c-.812.393-1.58.873-2.29 1.43a13.216 13.216 0 0 0 2.44-1.32v.06a11.59 11.59 0 0 0-2 2 12 12 0 0 0 2-1.94l.1.06a11.577 11.577 0 0 0-1.34 2.47 11.293 11.293 0 0 0 1.49-2.42 11.63 11.63 0 0 0-.63 2.76c.35-.881.591-1.801.72-2.74h.08a11.77 11.77 0 0 0 .11 2.8c.107-.93.107-1.87 0-2.8h.06c.16.936.431 1.85.81 2.72a11.535 11.535 0 0 0-.72-2.73h.08c.42.824.93 1.599 1.52 2.31a12.269 12.269 0 0 0-1.38-2.41c.6.689 1.27 1.312 2 1.86a12.907 12.907 0 0 0-1.93-1.95l.05-.07c.798.517 1.65.947 2.54 1.28a12.872 12.872 0 0 0-2.37-1.39v-.06c.877.31 1.786.52 2.71.63a17.587 17.587 0 0 0-2.34-.71c.844.008 1.686-.052 2.52-.18a11.36 11.36 0 0 0-2.84 0zm0 .1h.08-.08z" fill="#2A2B7A"/>
    </g>
    <defs>
        <clipPath id="bt6bm6q5fa">
            <path fill="#fff" d="M0 0h32v32H0z"/>
        </clipPath>
    </defs>
</svg>