<svg width="20" height="20" viewBox="0 0 20 20" fill="none" xmlns="http://www.w3.org/2000/svg">
<g clip-path="url(#clip0_758_30433)">
<path fill-rule="evenodd" clip-rule="evenodd" d="M10 0C4.47715 0 0 4.47715 0 10C0 15.5228 4.47715 20 10 20C15.5228 20 20 15.5228 20 10C20 4.47715 15.5228 0 10 0ZM12.5171 13.7452C12.8568 14.0849 13.4055 14.0849 13.7452 13.7452C14.0762 13.4056 14.0762 12.8481 13.7452 12.5172L11.2281 10L13.7452 7.48286C14.0849 7.14317 14.0849 6.59445 13.7452 6.25477C13.4055 5.91508 12.8568 5.91508 12.5171 6.25477L9.99998 8.77191L7.48284 6.25477C7.14315 5.91508 6.59443 5.91508 6.25475 6.25477C5.91506 6.59445 5.91506 7.14317 6.25475 7.48286L8.7719 10L6.25475 12.5172C5.91506 12.8568 5.91506 13.4056 6.25475 13.7452C6.59443 14.0849 7.14315 14.0849 7.48284 13.7452L9.99998 11.2281L12.5171 13.7452Z" fill="#C9334E"/>
</g>
<defs>
<clipPath id="clip0_758_30433">
<rect width="20" height="20" fill="white"/>
</clipPath>
</defs>
</svg>
