<svg width="24" height="24" viewBox="0 0 24 24" fill="none" xmlns="http://www.w3.org/2000/svg">
<path d="M12 1.33337C9.89033 1.33337 7.82804 1.95896 6.07392 3.13103C4.31979 4.3031 2.95262 5.96901 2.14528 7.91808C1.33795 9.86716 1.12671 12.0119 1.53829 14.081C1.94987 16.1501 2.96577 18.0508 4.45753 19.5425C5.94929 21.0343 7.84991 22.0502 9.91904 22.4618C11.9882 22.8733 14.1329 22.6621 16.082 21.8548C18.031 21.0474 19.6969 19.6802 20.869 17.9261C22.0411 16.172 22.6667 14.1097 22.6667 12C22.6667 9.17106 21.5429 6.45796 19.5425 4.45757C17.5421 2.45718 14.829 1.33337 12 1.33337ZM12 21.3334C10.154 21.3334 8.34954 20.786 6.81468 19.7604C5.27982 18.7349 4.08354 17.2772 3.37712 15.5718C2.67071 13.8663 2.48588 11.9897 2.846 10.1792C3.20613 8.36871 4.09505 6.70567 5.40034 5.40038C6.70563 4.09509 8.36867 3.20617 10.1792 2.84604C11.9896 2.48592 13.8663 2.67075 15.5717 3.37717C17.2772 4.08358 18.7348 5.27986 19.7604 6.81472C20.7859 8.34958 21.3333 10.1541 21.3333 12C21.3333 14.4754 20.35 16.8494 18.5997 18.5997C16.8493 20.35 14.4754 21.3334 12 21.3334Z" fill="#C9334E"/>
<path fill-rule="evenodd" clip-rule="evenodd" d="M16.5385 7.461C16.7933 7.7156 16.7823 8.13814 16.5137 8.40477L8.40929 16.4509C8.14074 16.7175 7.7164 16.7273 7.4615 16.4727C7.20661 16.2181 7.21769 15.7955 7.48625 15.5289L15.5907 7.48278C15.8592 7.21615 16.2836 7.2064 16.5385 7.461Z" fill="#C9334E"/>
<path fill-rule="evenodd" clip-rule="evenodd" d="M16.5254 16.5397C16.2701 16.7939 15.8458 16.7835 15.5777 16.5165L7.48551 8.45812C7.21736 8.19109 7.20693 7.76854 7.46221 7.51432C7.71749 7.26011 8.14181 7.2705 8.40996 7.53753L16.5021 15.5959C16.7703 15.8629 16.7807 16.2855 16.5254 16.5397Z" fill="#C9334E"/>
</svg>
