<?xml version="1.0" encoding="utf-8"?>
<!-- Generator: Adobe Illustrator 26.0.3, SVG Export Plug-In . SVG Version: 6.00 Build 0)  -->
<svg version="1.1" id="圖層_1" xmlns="http://www.w3.org/2000/svg" xmlns:xlink="http://www.w3.org/1999/xlink" x="0px" y="0px"
	 viewBox="0 0 164.6 48" style="enable-background:new 0 0 164.6 48;" xml:space="preserve">
<style type="text/css">
	g {fill: #fff}
	.st0{fill:#DE2027;}
	.st1{fill:#FFFFFF;}
	.st2{fill:#D3B271;}
	.st3{fill:url(#SVGID_1_);}
	.st4{fill-rule:evenodd;clip-rule:evenodd;fill:#FFFFFF;}
</style>
<path d="M93.8,4h-1v39.9h1V4z"/>
<path class="st0" d="M163.9,0l-50.8,15.2c-4.5,1.3-7.8,4.3-7.8,8.8c0,4.3,3,7.5,7,8.6l51.5,15L163.9,0z"/>
<path class="st1" d="M122.8,20.9c-0.2,0.8-0.7,1.3-2.2,1.3h-1.5l0.6-2.6h1.4C122.7,19.6,123,20.1,122.8,20.9z M122.2,25.7
	c-0.2,1-0.9,1.4-2.6,1.4h-1.5l0.6-2.8h1.5C121.9,24.3,122.4,24.7,122.2,25.7z M147.4,17.4c-2.2,0-2.8,1.6-2.8,1.6l-2.4,5.7h-0.1
	l-0.6-7.3h-3.8c-0.5,0-1.1,0.2-1.5,0.5c-0.5,0.3-0.8,0.7-1,1.2l-2.9,5.7h-0.1v-7.3h-2.6c-1.7,0-2.1,0.9-2.1,1.4
	c-0.5-0.9-1.9-1.4-4.3-1.4h-6.1c-2,0-2.2,1.5-2.2,1.5l-2.2,10.2h8.6c2.5,0,3.3-0.3,4.2-0.9c0.7-0.5,1.2-1.3,1.3-2.1
	c0.4-2-1-2.8-2.6-2.9v0c1.5-0.3,2.7-1,3.2-2.3l0.2,8.3h4.1c0.7,0,1.4-0.2,1.9-0.6c0.6-0.4,1-0.9,1.3-1.5l2.5-5h0l0.6,7.1h3.7
	c0.8,0,1.5-0.2,2.1-0.6c0.6-0.4,1.1-1,1.4-1.7l3.2-7.2l-2,9.5h2.2c2.8,0,3.2-2.3,3.2-2.3l0.4-2.1h3.2c2.4,0,2.8-1.9,2.8-1.9l0.1-0.6
	h-5.5l0.5-2.4h3.5c2.4,0,2.7-1.8,2.7-1.8l0.1-0.7L147.4,17.4z"/>
<g>
	<path d="M54.7,16c4-0.6,4.9-2.7,4.9-6.2V6c0-4-3.2-5.9-9.5-5.9c-6.3,0-9.5,2-9.5,5.9v4.4c0,3.1,0.7,4.7,4.3,5.4
		c-3.7,0.8-4.3,3.1-4.3,6.4V27c0,4,3.2,6,9.5,6c6.3,0,9.5-2,9.5-6v-4.8C59.6,18.6,58.7,16.5,54.7,16z M50,13.9c-1.4,0-2.1-0.7-2.1-2
		V5.6c0-1.3,0.7-1.9,2.1-1.9c1.4,0,2.1,0.6,2.1,1.9v6.3C52.2,13.2,51.4,13.9,50,13.9z M50,29.2c-1.4,0-2.1-0.7-2.1-2V20
		c0-1.4,0.7-2,2.1-2c1.4,0,2.1,0.7,2.1,2v7.2C52.2,28.5,51.4,29.2,50,29.2z"/>
	<path d="M76.5,16c4-0.6,4.9-2.7,4.9-6.2V6c0-4-3.2-5.9-9.5-5.9c-6.3,0-9.5,2-9.5,5.9v4.4c0,3.1,0.7,4.7,4.4,5.4
		c-3.7,0.8-4.4,3.1-4.4,6.4V27c0,4,3.2,6,9.5,6c6.3,0,9.5-2,9.5-6v-4.8C81.4,18.6,80.5,16.5,76.5,16z M71.8,13.9
		c-1.4,0-2.1-0.7-2.1-2V5.6c0-1.3,0.7-1.9,2.1-1.9c1.4,0,2.1,0.6,2.1,1.9v6.3C74,13.2,73.3,13.9,71.8,13.9z M71.8,29.2
		c-1.4,0-2.1-0.7-2.1-2V20c0-1.4,0.7-2,2.1-2c1.4,0,2.1,0.7,2.1,2v7.2C74,28.5,73.3,29.2,71.8,29.2z"/>
	<path d="M14.7,47.7v-0.6c-1.4-0.1-1.5-0.3-1.5-1.9l-0.2-6.6c0-1.5,0-1.6,1.4-1.7v-0.6H11L7.6,44l-3.4-7.7H0.6v0.6
		c1.5,0.1,1.6,0.4,1.5,2.4l-0.3,3.5c-0.1,1.8-0.3,2.8-0.4,3.3C1.3,46.7,1,47,0,47.1v0.6h4.2v-0.6C3,47,2.7,46.8,2.6,46
		c-0.1-0.5-0.1-1.4,0-2.8l0.2-4.6h0.1l3.6,9H7l3.9-9.1h0.1l0,6.8c0,1.6-0.1,1.7-1.4,1.9v0.6H14.7z"/>
	<path d="M27.2,47.7v-0.6c-1.1-0.1-1.3-0.4-1.9-1.9c-1.1-3-2.2-6.1-3.3-9.1l-0.9,0.2l-3.6,9c-0.6,1.5-0.8,1.7-1.9,1.8l0,0.6h3.9
		v-0.6c-1.3-0.2-1.3-0.4-1.1-1.2c0.2-0.7,0.4-1.3,0.6-1.9h3.4c0.3,0.7,0.5,1.5,0.7,2c0.3,0.8,0.2,1-0.8,1.1v0.6H27.2z M22,43h-2.7
		c0.5-1.2,0.9-2.5,1.4-3.8h0.1L22,43z"/>
	<path d="M40.2,36.3h-4.3v0.6c1.3,0.1,1.6,0.4,1.7,1.1c0,0.5,0.1,1.3,0.1,2.9V44h-0.1l-6.7-7.7h-3.2v0.6c0.7,0.1,1.1,0.2,1.5,0.6
		c0.3,0.4,0.4,0.7,0.4,1.9v3.7c0,1.5-0.1,2.3-0.2,2.9c-0.1,0.8-0.5,1-1.5,1.1v0.6h4.3v-0.6c-1.3-0.1-1.6-0.4-1.7-1.2
		c-0.1-0.5-0.1-1.3-0.1-2.8v-4h0.1l7.3,8.7h0.8v-7c0-1.5,0.1-2.4,0.2-2.9c0.1-0.8,0.5-1,1.4-1.1V36.3z"/>
	<path d="M48.2,39c-0.1-1.1-0.3-1.9-0.3-2.5c-0.3-0.1-1.3-0.5-2.4-0.5c-2.5,0-4,1.5-4,3.4c0,1.7,1.2,2.6,3,3.5
		c1.3,0.7,2.1,1.4,2.1,2.4c0,1.1-0.7,1.8-1.7,1.8c-1.7,0-2.7-2-3.1-3.1l-0.6,0.2c0.1,1.1,0.3,2.5,0.5,3c0.2,0.1,0.6,0.2,1.1,0.4
		c0.5,0.2,1.1,0.2,1.8,0.2c2.6,0,4.2-1.6,4.2-3.6c0-1.7-1.3-2.7-3.1-3.6c-1.5-0.8-2.2-1.3-2.2-2.3c0-1,0.7-1.7,1.7-1.7
		c1.4,0,2.1,1.3,2.4,2.4L48.2,39z"/>
	<path d="M55,47.7v-0.6c-1.3-0.1-1.5-0.2-1.5-1.7v-6.7c0-1.5,0.2-1.6,1.5-1.7v-0.6h-5.2v0.6c1.3,0.1,1.5,0.2,1.5,1.7v6.7
		c0,1.5-0.2,1.6-1.5,1.7v0.6H55z"/>
	<path d="M62.4,36c-4,0-6.1,3-6.1,6c0,3.4,2.4,6,5.9,6c3.3,0,6-2.3,6-6.1C68.2,38.4,65.6,36,62.4,36z M62.1,36.8
		c2,0,3.4,2.1,3.4,5.6c0,3.2-1.3,4.9-3,4.9c-2.2,0-3.6-2.5-3.6-5.5C58.9,38.6,60.3,36.8,62.1,36.8z"/>
	<path d="M81.4,36.3h-4.3v0.6c1.3,0.1,1.6,0.4,1.7,1.1c0,0.5,0.1,1.3,0.1,2.9V44h-0.1l-6.7-7.7H69v0.6c0.7,0.1,1.1,0.2,1.5,0.6
		c0.3,0.4,0.4,0.7,0.4,1.9v3.7c0,1.5-0.1,2.3-0.2,2.9c-0.1,0.8-0.5,1-1.5,1.1v0.6h4.3v-0.6c-1.3-0.1-1.6-0.4-1.7-1.2
		c-0.1-0.5-0.1-1.3-0.1-2.8v-4h0.1l7.3,8.7h0.8v-7c0-1.5,0.1-2.4,0.2-2.9c0.1-0.8,0.5-1,1.4-1.1V36.3z"/>
	<path class="st2" d="M0.5,0.5C0.5,0.2,0.7,0,1,0h36.3c0.3,0,0.5,0.2,0.5,0.5v32.3c0,0.3-0.2,0.5-0.5,0.5H1c-0.3,0-0.5-0.2-0.5-0.5
		V0.5z"/>
	
		<radialGradient id="SVGID_1_" cx="-1537.073" cy="1643.1644" r="6.234824e-02" gradientTransform="matrix(956.768 0 0 -841.06 1470642.25 1382003.375)" gradientUnits="userSpaceOnUse">
		<stop  offset="0" style="stop-color:#C01617"/>
		<stop  offset="0.5051" style="stop-color:#BE181B"/>
		<stop  offset="1" style="stop-color:#C7120C"/>
	</radialGradient>
	<path class="st3" d="M2.3,2.3c0-0.3,0.2-0.5,0.5-0.5h32.7c0.3,0,0.5,0.2,0.5,0.5v28.6c0,0.3-0.2,0.5-0.5,0.5H2.8
		c-0.3,0-0.5-0.2-0.5-0.5V2.3z"/>
	<path class="st4" d="M14.9,16.5V27c0,0.2-0.1,0.4-0.3,0.4c-0.2,0-0.3-0.1-0.3-0.4v-1.4h-0.5c-0.4,0-1.6,0.9-2.3,1.5l0,0
		c-0.2,0.2-0.4,0.3-0.6,0.4c-0.8-0.5-1.9-1-2.7-1.2c-0.1,0.1-0.3,0.2-0.4,0.4h0l0,0l0,0c-0.2,0.2-0.4,0.4-0.6,0.5
		c0,0-0.1,0.1-0.1,0.1C7.1,27.4,7,27.5,7,27.5c-0.1,0-0.3-0.2-0.3-0.3c0-0.1,0.3-0.5,1.8-2c1-1,1.4-2.3,1.4-4.2
		c0-3.1-1.4-5.8-2.9-5.8c-0.5,0-0.8,0.2-0.9,0.7c0,0.3-0.1,0.3-0.3,0.3c-0.2,0-0.3-0.4-0.3-1c0-1.4,1-2.6,2.3-2.6
		c0.6,0,1,0.3,1.3,0.5c0.3,0.2,0.5,0.3,0.8,0.3v-2.1c0-0.5-0.2-1-0.6-1.4C8.9,9.7,7.1,8.5,6.4,8.5c-0.1,0-0.2,0-0.3,0
		c-0.1,0-0.1,0-0.2,0c-0.1,0-0.1,0-0.1-0.1c0-0.1,0-0.1,0.2-0.3v0c0,0,0,0,0.1-0.1l2.3-2.2c0,0,0,0,0.1,0c0.1-0.1,0.1-0.1,0.2-0.1
		c0.5,0,1.7,0.9,2.8,1.6c0.7,0.5,1.3,0.9,1.5,0.9c0.3,0,1.1-0.5,2-1.1c1-0.7,2.2-1.4,2.6-1.4c0.2,0,0.4,0.2,1.9,1.4l0,0
		c0.1,0.1,0.2,0.2,0.3,0.2c0.1,0.1,0.2,0.1,0.3,0.2l0,0c0.3,0.3,0.7,0.6,1.1,0.9c0.5,0.3,0.5,0.3,0.5,0.9c0.3-0.1,0.6-0.3,2.4-1.8
		c0.5-0.4,2.1-1.7,2.2-1.7c0.1,0,1.4,0.5,3.3,1.3c0.6,0.2,0.6,0.3,0.6,0.6v14.9c0,0.5,0.1,0.7,0.3,0.8c0.9,0.7,1.4,1,1.7,1
		c0.1,0,0.2,0,0.3-0.1c0.1-0.2,0.2-0.2,0.3-0.2c0.1,0,0.2,0.1,0.2,0.2c0,0.2-1.3,1.8-2.6,2.8c-0.8-0.3-2.2-1.2-3-2
		C27,25,26.9,25,26.9,24.5V13.8c0-1.2,0.4-2.1,1.8-4c0.8-1,0.8-1.3,0.7-1.3c-0.1,0-0.7,0.5-1.3,0.9c-0.4,0.3-0.8,0.5-0.9,0.6
		c-0.1,0-0.1-0.1-0.2-0.1c-1.4-0.8-1.9-1.1-2.7-1.1c-0.5,0-0.8,0.2-0.8,0.5v17.7c0,0.2-0.1,0.4-0.3,0.4c-0.1,0-0.2-0.1-0.2-0.4v-1.3
		c-0.8,0.1-1.5,0.8-2,1.2c-0.3,0.2-0.4,0.4-0.5,0.4c-0.3,0-2.2-2.2-2.2-2.4v-8.5H14.9z M14.4,9.2c0-0.6-0.1-0.8-0.2-0.8
		C14,8.4,13,9,13,9.2v8c0,3.9-0.4,4.3-1.4,5.4c0,0,0,0-0.1,0.1c-0.5,0.5-0.6,0.6-0.9,1c0.6,0.8,2.6,1.2,3.8,1.2L14.4,9.2L14.4,9.2z
		 M18.3,13.8h-3.4V8.9c0-0.4,0.2-0.6,0.5-0.6c0.7,0,2.9,1.6,2.9,2.2V13.8z M23,9.7c0-0.1,0-0.1-0.1-0.1c-0.1,0-0.2,0.1-0.3,0.1
		l-0.7,0.4c-0.4,0.2-0.5,0.3-0.5,0.5v2.9c0,0.2,0.3,0.3,0.5,0.3H23V9.7z M21.9,16.5H23v8.4c-1.1-0.1-1.6-0.6-1.6-1.8v-5.9
		C21.5,16.7,21.6,16.5,21.9,16.5z"/>
</g>
</svg>
