<svg width="82" height="48" viewBox="0 0 82 48" fill="none" xmlns="http://www.w3.org/2000/svg">
<g clip-path="url(#clip0_469_5517)">
<path d="M54.6649 15.9662C58.6786 15.3667 59.5572 13.2813 59.5572 9.70909V5.94547C59.5572 1.98991 56.3984 0 50.0577 0C43.7169 0 40.5581 1.98991 40.5581 5.94547V10.3803C40.5581 13.497 41.2468 15.1267 44.9044 15.7505C41.2468 16.5657 40.5581 18.8429 40.5581 22.1753V27.042C40.5581 31.0455 43.7169 33.0354 50.0577 33.0354C56.3984 33.0354 59.5572 31.0455 59.5572 27.042V22.2233C59.5572 18.5556 58.6786 16.4697 54.6649 15.9662ZM50.0103 13.8803C48.6093 13.8803 47.9206 13.2091 47.9206 11.8904V5.5616C47.9206 4.26717 48.6098 3.64394 50.0103 3.64394C51.4108 3.64394 52.1479 4.29144 52.1479 5.5616V11.8904C52.1479 13.2091 51.435 13.8803 50.0103 13.8803ZM50.0103 29.199C48.6093 29.199 47.9206 28.5278 47.9206 27.2091V20.0409C47.9206 18.6742 48.6098 18.003 50.0103 18.003C51.4108 18.003 52.1479 18.6742 52.1479 20.0409V27.2091C52.1479 28.5278 51.435 29.199 50.0103 29.199Z" fill="white"/>
<path d="M76.45 15.9662C80.4665 15.3667 81.3463 13.2813 81.3463 9.70909V5.94547C81.3463 1.98991 78.1847 0 71.839 0C65.4933 0 62.3323 1.98991 62.3323 5.94547V10.3803C62.3323 13.497 63.0215 15.1267 66.6818 15.7505C63.0215 16.5657 62.3323 18.8429 62.3323 22.1753V27.042C62.3323 31.0455 65.4933 33.0354 71.839 33.0354C78.1847 33.0354 81.3463 31.0455 81.3463 27.042V22.2233C81.3463 18.5556 80.4665 16.4697 76.45 15.9662ZM71.7916 13.8803C70.389 13.8803 69.6997 13.2091 69.6997 11.8904V5.5616C69.6997 4.26717 70.389 3.64394 71.7916 3.64394C73.1943 3.64394 73.9304 4.29144 73.9304 5.5616V11.8904C73.954 13.2091 73.2411 13.8803 71.7916 13.8803ZM71.7916 29.199C70.389 29.199 69.6997 28.5278 69.6997 27.2091V20.0409C69.6997 18.6742 70.389 18.003 71.7916 18.003C73.1943 18.003 73.9304 18.6742 73.9304 20.0409V27.2091C73.954 28.5278 73.2411 29.199 71.7916 29.199Z" fill="white"/>
<path d="M14.7195 47.7364V47.1209C13.3559 46.9803 13.2683 46.8573 13.2336 45.2397L13.0762 38.6649C13.041 37.2061 13.1114 37.0655 14.5097 36.9248V36.3093H10.9958L7.56948 44.0092L4.19542 36.3093H0.576932V36.9248C2.08037 37.0655 2.20258 37.3114 2.06275 39.3157L1.78309 42.7787C1.66088 44.6247 1.52105 45.5386 1.4159 46.1011C1.31076 46.7161 0.978802 47.0327 0 47.1209V47.7364H4.19542V47.1209C3.04155 47.015 2.69198 46.8573 2.62207 46.0664C2.55215 45.5215 2.55215 44.6953 2.62207 43.236L2.83181 38.6478H2.90172L6.46791 47.6129H6.95731L10.8208 38.4719H10.9083L10.9435 45.2397C10.9612 46.8573 10.856 46.9797 9.54525 47.1209V47.7364H14.72H14.7195Z" fill="white"/>
<path d="M27.2138 47.7363V47.1208C26.1123 46.9802 25.8855 46.7513 25.2909 45.2048C24.1547 42.1813 23.0707 39.1226 21.9521 36.0461L21.0603 36.2745L17.4765 45.3102C16.8995 46.7866 16.6898 46.9802 15.5359 47.1208L15.5183 47.7363H19.4341V47.1208C18.158 46.9625 18.1228 46.7165 18.3677 45.8727C18.5775 45.1695 18.8048 44.5369 18.997 43.992H22.3534C22.6154 44.7128 22.878 45.4508 23.0525 45.9786C23.3322 46.7518 23.2447 46.9625 22.2136 47.1214V47.7369H27.2133L27.2138 47.7363ZM22.022 43.0605H19.2948C19.7495 41.8124 20.1866 40.5466 20.676 39.2632H20.7283L22.022 43.0605Z" fill="white"/>
<path d="M40.2036 36.3098H35.9383V36.9253C37.2143 36.9954 37.5815 37.2943 37.6691 38.0504C37.7043 38.56 37.8089 39.3862 37.8089 40.9333V44.0273H37.739L31.0608 36.3104H27.8265V36.9259C28.5609 36.9959 28.9628 37.1366 29.2777 37.5585C29.6096 37.9627 29.6449 38.297 29.6449 39.4392V43.1135C29.6449 44.6605 29.5397 45.4337 29.4698 46.0139C29.3999 46.7695 28.998 47.0508 28.0187 47.1214V47.7369H32.3016V47.1214C31.0079 47.0685 30.7106 46.7348 30.6231 45.961C30.5708 45.4337 30.4833 44.6599 30.4833 43.1135V39.1585H30.5356L37.8078 47.9129H38.6468V40.9344C38.6468 39.3873 38.7519 38.5612 38.8042 38.0162C38.8917 37.2077 39.2589 36.9794 40.2025 36.9264V36.3109L40.2036 36.3098Z" fill="white"/>
<path d="M48.2145 39.0349C48.0741 37.9451 47.9525 37.1713 47.882 36.521C47.5676 36.398 46.5707 36.0461 45.452 36.0461C42.9698 36.0461 41.4488 37.5579 41.4488 39.4915C41.4488 41.1792 42.6902 42.1284 44.4909 43.0423C45.8022 43.7455 46.5712 44.3957 46.5712 45.4331C46.5712 46.5406 45.8897 47.2786 44.8234 47.2786C43.1449 47.2786 42.1138 45.3102 41.7642 44.185L41.1526 44.3786C41.2748 45.4508 41.5022 46.9278 41.6596 47.3668C41.9046 47.4727 42.2365 47.6128 42.7259 47.7534C43.2506 47.9112 43.8622 47.9994 44.4914 47.9994C47.0436 47.9994 48.7397 46.4347 48.7397 44.431C48.7397 42.6909 47.4807 41.7065 45.6453 40.8097C44.1072 40.0364 43.4774 39.4739 43.4774 38.5071C43.4774 37.5402 44.1941 36.767 45.1729 36.767C46.6065 36.767 47.2533 38.068 47.6199 39.1755L48.2145 39.0349Z" fill="white"/>
<path d="M55.0007 47.7364V47.1209C53.7064 46.9979 53.5495 46.8749 53.5495 45.3979V38.6654C53.5495 37.1713 53.707 37.0483 55.0007 36.9253V36.3098H49.756V36.9253C51.0502 37.0483 51.2071 37.1713 51.2071 38.6654V45.3979C51.2071 46.8749 51.0497 46.9973 49.756 47.1209V47.7364H55.0007Z" fill="white"/>
<path d="M62.3984 36.0461C58.3951 36.0461 56.2625 39.0172 56.2625 42.0407C56.2625 45.416 58.6924 48 62.1887 48C65.4752 48 68.1848 45.6973 68.1848 41.9001C68.1848 38.4194 65.5803 36.0461 62.3984 36.0461ZM62.0835 36.7846C64.0945 36.7846 65.5104 38.8942 65.5104 42.3926C65.5104 45.6273 64.1644 47.2615 62.5035 47.2615C60.2657 47.2615 58.9368 44.7128 58.9368 41.707C58.9368 38.7012 60.318 36.7846 62.0835 36.7846Z" fill="white"/>
<path d="M81.3473 36.3098H77.0815V36.9253C78.3581 36.9954 78.7253 37.2943 78.8123 38.0504C78.8469 38.56 78.9521 39.3862 78.9521 40.9333V44.0273H78.8822L72.204 36.3104H68.9697V36.9259C69.7036 36.9959 70.106 37.1366 70.4203 37.5585C70.7523 37.9627 70.7875 38.297 70.7875 39.4392V43.1135C70.7875 44.6605 70.6824 45.4337 70.6124 46.0139C70.5425 46.7695 70.1401 47.0508 69.1613 47.1214V47.7369H73.4448V47.1214C72.1506 47.0685 71.8538 46.7348 71.7663 45.961C71.7135 45.4337 71.6259 44.6599 71.6259 43.1135V39.1585H71.6788L78.951 47.9129H79.7905V40.9344C79.7905 39.3873 79.8951 38.5612 79.9479 38.0162C80.0355 37.2077 80.4027 36.9794 81.3462 36.9264V36.3109L81.3473 36.3098Z" fill="white"/>
<path d="M0.508667 0.475968C0.508667 0.21289 0.721163 0 0.983755 0H37.3084C37.5705 0 37.7835 0.21289 37.7835 0.475968V32.7905C37.7835 33.0536 37.571 33.2665 37.3084 33.2665H0.983755C0.721713 33.2665 0.508667 33.0531 0.508667 32.7905V0.475968Z" fill="#D3B271"/>
<path d="M2.34955 2.32411C2.34955 2.06103 2.56205 1.84814 2.82464 1.84814H35.4675C35.7296 1.84814 35.9426 2.06103 35.9426 2.32411V30.9423C35.9426 31.2054 35.7301 31.4183 35.4675 31.4183H2.82409C2.56205 31.4183 2.349 31.2049 2.349 30.9423V2.32411H2.34955Z" fill="#BE181B"/>
<path fill-rule="evenodd" clip-rule="evenodd" d="M14.9094 16.5046V26.983C14.9094 27.2114 14.8505 27.3548 14.6474 27.3548C14.4442 27.3548 14.3589 27.2114 14.3589 26.983V25.5998H13.8409C13.4687 25.5998 12.2697 26.5242 11.5073 27.1115C11.2628 27.3002 11.0636 27.4535 10.9507 27.5313C10.1117 27.0421 9.06963 26.5529 8.28956 26.2914C8.14973 26.4221 8.02201 26.5407 7.90585 26.6477C7.66253 26.8727 7.4726 27.0481 7.33938 27.1855C7.28984 27.2351 7.2469 27.2792 7.21001 27.3184C7.09496 27.4381 7.03055 27.5053 6.96614 27.5053C6.8219 27.5053 6.64519 27.3355 6.64519 27.1855C6.64519 27.0354 6.96614 26.6962 8.44095 25.1889C9.45058 24.1515 9.85685 22.9117 9.85685 21.0067C9.85685 17.8619 8.49985 15.1737 6.94026 15.1737C6.42224 15.1737 6.16019 15.3761 6.07487 15.8979C6.04844 16.1588 5.93063 16.2437 5.81282 16.2437C5.58326 16.2437 5.46545 15.8653 5.46545 15.2322C5.46545 13.7905 6.47508 12.6356 7.72033 12.6356C8.29892 12.6356 8.69088 12.8899 9.02944 13.1099C9.31625 13.2963 9.56508 13.4574 9.85685 13.4188V11.3114C9.85685 10.7632 9.65371 10.2999 9.24744 9.95407C8.90007 9.66673 7.11092 8.45337 6.44205 8.45337C6.31434 8.45337 6.22075 8.47984 6.13817 8.50301C6.07266 8.52176 6.01431 8.5383 5.95045 8.5383C5.86512 8.5383 5.83264 8.51238 5.83264 8.45337C5.83264 8.37836 5.87889 8.32321 6.00825 8.17099C6.02477 8.15168 6.04239 8.13072 6.06165 8.10756L8.3424 5.85678C8.36332 5.84189 8.38204 5.82755 8.39966 5.81431C8.48113 5.75309 8.53343 5.71338 8.63087 5.71338C9.09165 5.71338 10.3699 6.58148 11.4153 7.29185C12.1393 7.78326 12.7514 8.19911 12.9039 8.19911C13.1808 8.19911 14.0011 7.6884 14.8885 7.13522C15.9356 6.48276 17.0768 5.77184 17.5309 5.77184C17.7462 5.77184 17.9675 5.95054 19.4489 7.14514L19.456 7.15121C19.5496 7.22677 19.6487 7.30619 19.7528 7.39057C19.8243 7.44738 19.9135 7.52184 20.0154 7.60732C20.3242 7.86544 20.7481 8.22007 21.1422 8.46054C21.6074 8.74788 21.6339 8.80635 21.6339 9.35456C21.9223 9.2961 22.2433 9.06722 24.0588 7.59299C24.5769 7.16224 26.1106 5.91634 26.2284 5.91634C26.3726 5.91634 27.6443 6.43809 29.5254 7.21464C30.0759 7.44297 30.1612 7.50198 30.1612 7.84724V22.7749C30.1612 23.2641 30.2201 23.4406 30.4233 23.6099C31.2887 24.36 31.8127 24.6473 32.1012 24.6473C32.1865 24.6473 32.3043 24.6148 32.3897 24.5298C32.5339 24.3274 32.5664 24.3015 32.6517 24.3015C32.737 24.3015 32.8284 24.419 32.8284 24.5298C32.8284 24.7058 31.5309 26.3173 30.2003 27.3614C29.3944 27.074 28.0049 26.1216 27.2248 25.3125C26.9628 25.0251 26.9099 24.9667 26.9099 24.4775V13.7905C26.9099 12.5507 27.3096 11.709 28.7585 9.77814C29.5122 8.79973 29.5645 8.50576 29.4208 8.50576C29.3503 8.50576 28.6963 8.95746 28.1056 9.36504C27.7048 9.64191 27.3327 9.89837 27.1923 9.98055C27.1296 9.9447 27.0685 9.9094 27.009 9.87576C25.5942 9.06446 25.1329 8.79973 24.328 8.79973C23.8695 8.79973 23.548 9.02806 23.548 9.32147V27.0746C23.548 27.3029 23.4302 27.4789 23.2595 27.4789C23.1153 27.4789 23.0299 27.3355 23.0299 27.1071V25.7763C22.2157 25.9087 21.5028 26.5705 21.0255 27.0128C20.7729 27.2472 20.5868 27.4204 20.4866 27.4204C20.1723 27.4204 18.2912 25.1696 18.2912 24.9931V16.5046H14.9089H14.9094ZM14.3853 9.14498C14.3853 8.56423 14.3264 8.36843 14.2147 8.36843C13.9592 8.36843 13.0283 8.94919 13.0283 9.14498V17.1377C13.0283 21.0155 12.5868 21.4793 11.5865 22.53C11.5667 22.5504 11.5475 22.5714 11.5271 22.5923C11.0619 23.0815 10.9502 23.199 10.6028 23.6038C11.2122 24.4388 13.2309 24.8172 14.3914 24.7587V9.14498H14.3848H14.3853ZM18.2917 13.7646H14.9094V8.91665C14.9094 8.5383 15.0801 8.33589 15.401 8.33589C16.1222 8.33589 18.2917 9.98 18.2917 10.5867V13.764V13.7646ZM23.0305 9.66066C23.0305 9.60165 23.0041 9.57573 22.9127 9.57573C22.8274 9.57573 22.6831 9.63419 22.5917 9.6932L21.9295 10.0975C21.5557 10.3258 21.4379 10.4433 21.4379 10.6192V13.5032C21.4379 13.7056 21.6999 13.849 21.9031 13.849H23.0305V9.66011V9.66066ZM21.9295 16.4461H23.0239V24.8172C21.9553 24.7323 21.4637 24.1846 21.4637 23.0297V17.1118C21.4637 16.6811 21.6146 16.4461 21.9289 16.4461H21.9295Z" fill="white"/>
</g>
<defs>
<clipPath id="clip0_469_5517">
<rect width="81.3474" height="48" fill="white"/>
</clipPath>
</defs>
</svg>
