<svg xmlns="http://www.w3.org/2000/svg" xmlns:xlink="http://www.w3.org/1999/xlink" preserveAspectRatio="xMidYMid meet" width="82" height="32" viewBox="0 0 82 32" style="width:100%;height:100%"><defs><animateMotion repeatCount="indefinite" dur="10s" begin="0s" xlink:href="#_R_G_L_0_G_L_8_G" fill="freeze" keyTimes="0;0.12644;0.2490433;0.3754833;0.4980867;0.6283533;0.7509567;0.8773967;1" path="M124.54 438.8 C124.54,432.33 124.54,400 124.54,400 C124.54,400 124.54,438.8 124.54,438.8 C124.54,438.8 124.54,400 124.54,400 C124.54,400 124.54,438.8 124.54,438.8 C124.54,438.8 124.54,400 124.54,400 C124.54,400 124.54,438.8 124.54,438.8 C124.54,438.8 124.54,400 124.54,400 C124.54,400 124.54,432.33 124.54,438.8 " keyPoints="0;0.13;0.25;0.38;0.5;0.63;0.75;0.88;1" keySplines="0.33 0 0.67 1;0.33 0 0.67 1;0.33 0 0.67 1;0.33 0 0.67 1;0.33 0 0.67 1;0.33 0 0.67 1;0.33 0 0.67 1;0.33 0 0.67 1" calcMode="spline"/><animateTransform repeatCount="indefinite" dur="10s" begin="0s" xlink:href="#_R_G_L_0_G_L_8_G" fill="freeze" attributeName="transform" from="19.8 19.8" to="19.8 19.8" type="scale" additive="sum" keyTimes="0;1" values="19.8 19.8;19.8 19.8" keySplines="0 0 1 1" calcMode="spline"/><animateTransform repeatCount="indefinite" dur="10s" begin="0s" xlink:href="#_R_G_L_0_G_L_8_G" fill="freeze" attributeName="transform" from="-4.725 -10.25" to="-4.725 -10.25" type="translate" additive="sum" keyTimes="0;1" values="-4.725 -10.25;-4.725 -10.25" keySplines="0 0 1 1" calcMode="spline"/><animate repeatCount="indefinite" dur="10s" begin="0s" xlink:href="#_R_G_L_0_G_L_6_G" fill="freeze" attributeName="opacity" from="1" to="0" keyTimes="0;0.1866667;0.2416767;0.3516967;0.4106333;0.5403033;0.5953133;0.7053333;0.76427;0.89394;0.94895;1" values="1;1;0;0.05566;0.99;1;0;0.05566;0.99;1;0;0" keySplines="1 0 0.95 1;1 0 0.95 1;0.389 0 0.719 0.369;0.379 0.027 0.71 0.959;0.957 1 0.913 1;1 0 0.95 1;1 0 0.719 0.369;0.379 0.027 0.71 0.959;0.957 1 0.913 1;1 0 0.95 1;0 0 0 0" calcMode="spline"/><animateTransform repeatCount="indefinite" dur="10s" begin="0s" xlink:href="#_R_G_L_0_G_L_6_G" fill="freeze" attributeName="transform" from="0 0" to="0 0" type="scale" additive="sum" keyTimes="0;0.0566667;0.1863333;0.2924267;0.4103033;0.53997;0.64606;0.76394;0.8936067;0.9996967;1" values="0 0;0 0;19.8 19.8;0 0;0 0;19.8 19.8;0 0;0 0;19.8 19.8;0 0;0 0" keySplines="0.75 0 0.67 1;0.75 0 0.67 1;0.75 0 0.833 1;0.167 0 0.67 1;0.75 0 0.67 1;0.75 0 0.833 1;0.167 0 0.67 1;0.75 0 0.67 1;0.75 0 0.833 1;0 0 0 0" calcMode="spline"/><animateTransform repeatCount="indefinite" dur="10s" begin="0s" xlink:href="#_R_G_L_0_G_L_6_G" fill="freeze" attributeName="transform" from="-5.055 -5.25" to="-5.055 -5.25" type="translate" additive="sum" keyTimes="0;1" values="-5.055 -5.25;-5.055 -5.25" keySplines="0 0 1 1" calcMode="spline"/><animate repeatCount="indefinite" dur="10s" begin="0s" xlink:href="#_R_G_L_0_G_L_6_G_M" fill="freeze" attributeName="opacity" from="0" to="1" keyTimes="0;0.0566667;0.056667;1" values="0;0;1;1" keySplines="0 0 0 0;0 0 0 0;0 0 0 0" calcMode="spline"/><animate repeatCount="indefinite" dur="10s" begin="0s" xlink:href="#_R_G_L_0_G_L_5_G" fill="freeze" attributeName="opacity" from="1" to="0" keyTimes="0;0.1296667;0.1846767;0.2946967;0.3536367;0.4833033;0.5383133;0.6483333;0.7072733;0.83694;0.89195;1" values="1;1;0;0.05566;0.99;1;0;0.05566;0.99;1;0;0" keySplines="1 0 0.95 1;1 0 0.95 1;0.389 0 0.719 0.369;0.379 0.027 0.71 0.959;0.957 1 0.913 1;1 0 0.95 1;1 0 0.719 0.369;0.379 0.027 0.71 0.959;0.957 1 0.913 1;1 0 0.95 1;0 0 0 0" calcMode="spline"/><animateTransform repeatCount="indefinite" dur="10s" begin="0s" xlink:href="#_R_G_L_0_G_L_5_G" fill="freeze" attributeName="transform" from="0 0" to="0 0" type="scale" additive="sum" keyTimes="0;0.1296667;0.23576;0.3536367;0.4833033;0.5893933;0.7072733;0.83694;0.94303;1" values="0 0;19.8 19.8;0 0;0 0;19.8 19.8;0 0;0 0;19.8 19.8;0 0;0 0" keySplines="0.75 0 0.67 1;0.75 0 0.833 1;0.167 0 0.67 1;0.75 0 0.67 1;0.75 0 0.833 1;0.167 0 0.67 1;0.75 0 0.67 1;0.75 0 0.833 1;0 0 0 0" calcMode="spline"/><animateTransform repeatCount="indefinite" dur="10s" begin="0s" xlink:href="#_R_G_L_0_G_L_5_G" fill="freeze" attributeName="transform" from="-5.055 -5.25" to="-5.055 -5.25" type="translate" additive="sum" keyTimes="0;1" values="-5.055 -5.25;-5.055 -5.25" keySplines="0 0 1 1" calcMode="spline"/><animateMotion repeatCount="indefinite" dur="10s" begin="0s" xlink:href="#_R_G_L_0_G_L_3_G" fill="freeze" keyTimes="0;0.1090933;0.21818;0.3272733;0.4996967;0.60879;0.7178767;0.8269694;1" path="M781.42 537.8 C685.92,537.8 303.92,537.8 208.42,537.8 C208.42,537.8 208.42,537.8 208.42,537.8 C303.92,537.8 685.92,537.8 781.42,537.8 C781.42,537.8 781.42,537.8 781.42,537.8 C685.92,537.8 303.92,537.8 208.42,537.8 C208.42,537.8 208.42,537.8 208.42,537.8 C303.92,537.8 685.92,537.8 781.42,537.8 C781.42,537.8 781.42,537.8 781.42,537.8 " keyPoints="0;0.25;0.25;0.5;0.5;0.75;0.75;1;1" keySplines="0.75 0 0.67 1;0.75 0.75 0.67 0.67;0.75 0 0.67 1;0.75 0.75 0.67 0.67;0.75 0 0.67 1;0.75 0.75 0.67 0.67;0.75 0 0.67 1;0 0 0 0" calcMode="spline"/><animateTransform repeatCount="indefinite" dur="10s" begin="0s" xlink:href="#_R_G_L_0_G_L_3_G" fill="freeze" attributeName="transform" from="0" to="0" type="rotate" additive="sum" keyTimes="0;0.1090933;0.21818;0.3272733;0.4996967;0.60879;0.7178767;0.8269694;1" values="0;-220;-220;0;0;-220;-220;0;0" keySplines="0.75 0 0.67 1;0.75 0 0.67 1;0.75 0 0.67 1;0.75 0 0.67 1;0.75 0 0.67 1;0.75 0 0.67 1;0.75 0 0.67 1;0 0 0 0" calcMode="spline"/><animateTransform repeatCount="indefinite" dur="10s" begin="0s" xlink:href="#_R_G_L_0_G_L_3_G" fill="freeze" attributeName="transform" from="19.8 19.8" to="19.8 19.8" type="scale" additive="sum" keyTimes="0;1" values="19.8 19.8;19.8 19.8" keySplines="0 0 1 1" calcMode="spline"/><animateTransform repeatCount="indefinite" dur="10s" begin="0s" xlink:href="#_R_G_L_0_G_L_3_G" fill="freeze" attributeName="transform" from="-5.25 -5.25" to="-5.25 -5.25" type="translate" additive="sum" keyTimes="0;1" values="-5.25 -5.25;-5.25 -5.25" keySplines="0 0 1 1" calcMode="spline"/><animate repeatCount="indefinite" dur="10s" begin="0s" xlink:href="#_R_G_L_0_G_L_2_G" fill="freeze" attributeName="opacity" from="0" to="0" keyTimes="0;0.1;0.4;0.5;1" values="0;1;1;0;0" keySplines="0.167 0.167 0.833 0.833;0.167 0.167 0.833 0.833;0.167 0.167 0.833 0.833;0 0 0 0" calcMode="spline"/><animate repeatCount="indefinite" dur="10s" begin="0s" xlink:href="#_R_G_L_0_G_L_2_G_M" fill="freeze" attributeName="opacity" from="1" to="0" keyTimes="0;0.5;0.5;1" values="1;1;0;0" keySplines="0 0 0 0;0 0 0 0;0 0 0 0" calcMode="spline"/><animate repeatCount="indefinite" dur="10s" begin="0s" xlink:href="#_R_G_L_0_G_L_1_G" fill="freeze" attributeName="opacity" from="0" to="1" keyTimes="0;0.5;0.6;0.9;1" values="0;0;1;1;1" keySplines="0.167 0.167 0.833 0.833;0.167 0.167 0.833 0.833;0.167 0.167 0.833 0.833;0 0 0 0" calcMode="spline"/><animate repeatCount="indefinite" dur="10s" begin="0s" xlink:href="#_R_G_L_0_G_L_1_G_M" fill="freeze" attributeName="opacity" from="0" to="1" keyTimes="0;0.5;0.5000003;1" values="0;0;1;1" keySplines="0 0 0 0;0 0 0 0;0 0 0 0" calcMode="spline"/><animateTransform repeatCount="indefinite" dur="10s" begin="0s" xlink:href="#_R_G_L_0_G_L_0_G" fill="freeze" attributeName="transform" from="12.5 0" to="12.5 0" type="scale" additive="sum" keyTimes="0;0.0833333;0.2333333;0.3166667;0.5;0.5833333;0.7333333;0.8166667;1" values="12.5 0;12.5 16.6332;12.5 16.6332;12.5 0;12.5 0;12.5 16.6332;12.5 16.6332;12.5 0;12.5 0" keySplines="0.75 0 0.67 1;0.75 0 0.67 1;0.75 0 0.67 1;0.167 0 0.67 1;0.75 0 0.67 1;0.75 0 0.67 1;0.75 0 0.67 1;0 0 0 0" calcMode="spline"/><animateTransform repeatCount="indefinite" dur="10s" begin="0s" xlink:href="#_R_G_L_0_G_L_0_G" fill="freeze" attributeName="transform" from="-0.862 -0.25" to="-0.862 -0.25" type="translate" additive="sum" keyTimes="0;1" values="-0.862 -0.25;-0.862 -0.25" keySplines="0 0 1 1" calcMode="spline"/><animate attributeType="XML" attributeName="opacity" dur="10s" from="0" to="1" xlink:href="#time_group"/></defs><g id="_R_G"><g id="_R_G_L_0_G" transform=" translate(41, 16) scale(0.05, 0.05) translate(-820, -320)"><g id="_R_G_L_0_G_L_8_G"><path id="_R_G_L_0_G_L_8_G_D_0_P_0" fill="#006934" fill-opacity="1" fill-rule="nonzero" d=" M7.61 19.5 C7.61,19.92 6.33,20.25 4.74,20.25 C3.16,20.25 1.87,19.92 1.87,19.5 C1.87,19.09 3.16,18.76 4.74,18.76 C6.33,18.76 7.61,19.09 7.61,19.5z "/><path id="_R_G_L_0_G_L_8_G_D_1_P_0" fill="#92c3df" fill-opacity="1" fill-rule="nonzero" d=" M5.35 2.78 C5.76,2.52 6.24,2.19 6.39,2.03 C6.4,2.01 6.42,1.99 6.42,1.98 C6.49,1.82 6.61,1.16 6.67,0.87 C6.68,0.82 6.69,0.79 6.69,0.76 C6.7,0.71 6.7,0.68 6.7,0.65 C6.69,0.65 6.68,0.65 6.68,0.64 C6.03,0.31 5.28,0.25 4.72,0.25 C4.17,0.25 3.42,0.31 2.77,0.64 C2.77,0.65 2.76,0.65 2.76,0.65 C2.76,0.67 2.76,0.7 2.76,0.73 C2.76,0.77 2.77,0.81 2.78,0.87 C2.85,1.16 2.97,1.82 3.03,1.98 C3.04,1.99 3.04,2 3.06,2.01 C3.18,2.17 3.68,2.51 4.11,2.78 C4.29,2.72 4.5,2.69 4.72,2.69 C4.95,2.69 5.16,2.73 5.35,2.78z "/><path id="_R_G_L_0_G_L_8_G_D_2_P_0" fill="#92c3df" fill-opacity="1" fill-rule="nonzero" d=" M3.48 3.17 C2.93,2.97 2.31,2.67 2.22,2.51 C2.21,2.51 2.21,2.5 2.21,2.49 C2.15,2.34 1.99,1.72 1.92,1.43 C1.91,1.4 1.91,1.37 1.9,1.35 C1.81,1.47 1.73,1.61 1.68,1.77 C1.67,1.77 1.67,1.77 1.67,1.78 C1.65,1.86 1.64,1.95 1.64,2.05 C1.64,2.41 1.77,2.9 1.86,3.2 C1.89,3.31 1.91,3.4 1.93,3.44 C1.96,3.53 2.69,3.54 3.39,3.54 C3.39,3.54 3.39,3.4 3.39,3.4 C3.39,3.32 3.43,3.24 3.48,3.17z "/><path id="_R_G_L_0_G_L_8_G_D_3_P_0" fill="#92c3df" fill-opacity="1" fill-rule="nonzero" d=" M6.06 3.54 C6.76,3.54 7.49,3.53 7.52,3.44 C7.52,3.43 7.52,3.43 7.53,3.42 C7.55,3.35 7.58,3.24 7.62,3.11 C7.63,3.09 7.63,3.07 7.64,3.06 C7.71,2.77 7.78,2.42 7.78,2.15 C7.78,1.85 7.68,1.61 7.54,1.41 C7.54,1.41 7.53,1.42 7.53,1.43 C7.47,1.72 7.3,2.34 7.25,2.49 C7.24,2.51 7.23,2.52 7.21,2.54 C7.21,2.54 7.21,2.54 7.21,2.54 C7.06,2.71 6.48,2.98 5.97,3.17 C6.02,3.24 6.06,3.32 6.06,3.4 C6.06,3.4 6.06,3.54 6.06,3.54z "/><path id="_R_G_L_0_G_L_8_G_D_4_P_0" fill="#ffffff" fill-opacity="1" fill-rule="nonzero" d=" M4.73 3.16 C4.73,3.16 4.69,3.49 4.03,3.34 C3.46,3.21 2.35,2.72 2.22,2.51 C2.21,2.5 2.21,2.5 2.21,2.49 C2.15,2.34 1.99,1.71 1.92,1.42 C1.92,1.4 1.91,1.37 1.91,1.35 C1.9,1.33 1.9,1.32 1.89,1.3 C2.17,0.94 2.58,0.74 2.76,0.65 C2.76,0.67 2.76,0.7 2.76,0.73 C2.76,0.77 2.77,0.81 2.78,0.87 C2.85,1.16 2.97,1.82 3.03,1.97 C3.04,1.99 3.04,2 3.06,2.01 C3.27,2.29 4.73,3.16 4.73,3.16z "/><path id="_R_G_L_0_G_L_8_G_D_5_P_0" fill="#ffffff" fill-opacity="1" fill-rule="nonzero" d=" M7.56 1.31 C7.56,1.31 7.56,1.31 7.56,1.31 C7.55,1.33 7.55,1.37 7.54,1.41 C7.54,1.42 7.53,1.42 7.53,1.42 C7.47,1.71 7.3,2.33 7.25,2.49 C7.24,2.51 7.23,2.53 7.21,2.55 C7.21,2.55 7.21,2.55 7.21,2.55 C7,2.77 5.96,3.22 5.42,3.34 C4.77,3.49 4.73,3.16 4.73,3.16 C4.73,3.16 6.12,2.33 6.39,2.03 C6.4,2.01 6.42,1.99 6.42,1.97 C6.49,1.82 6.61,1.16 6.67,0.87 C6.68,0.82 6.69,0.79 6.69,0.76 C6.7,0.71 6.7,0.68 6.7,0.65 C6.88,0.74 7.29,0.94 7.56,1.31z "/><path id="_R_G_L_0_G_L_8_G_D_6_P_0" fill="#80abc3" fill-opacity="1" fill-rule="nonzero" d=" M4.72 1.62 C6.38,1.62 7.89,2.47 7.51,3.46 C7.32,3.96 6.29,4.63 4.72,4.63 C3.16,4.63 2.13,3.96 1.94,3.46 C1.56,2.47 3.07,1.62 4.72,1.62z "/><path id="_R_G_L_0_G_L_8_G_D_7_P_0" fill="#4a839c" fill-opacity="1" fill-rule="nonzero" d=" M4.7 2.46 C5.08,2.46 5.23,2.52 5.36,2.57 C5.48,2.61 5.8,2.64 5.95,2.44 C6.11,2.24 6.42,2.23 6.75,2.32 C6.75,2.32 6.23,1.74 4.7,1.74 C3.18,1.74 2.66,2.32 2.66,2.32 C2.98,2.23 3.3,2.24 3.46,2.44 C3.61,2.64 3.93,2.61 4.05,2.57 C4.18,2.52 4.33,2.46 4.7,2.46z "/><path id="_R_G_L_0_G_L_8_G_D_8_P_0" fill="#4a839c" fill-opacity="1" fill-rule="nonzero" d=" M3.36 4.18 C3.36,4.18 2.77,4.2 2.77,4.2 C2.32,3.98 2.03,3.69 1.94,3.45 C1.86,3.25 1.86,3.05 1.93,2.87 C1.93,3.18 2.08,3.5 2.36,3.68 C2.66,3.88 2.93,4.04 3.36,4.18z "/><path id="_R_G_L_0_G_L_8_G_D_9_P_0" fill="#4a839c" fill-opacity="1" fill-rule="nonzero" d=" M7.51 3.45 C7.42,3.69 7.13,3.98 6.68,4.2 C6.68,4.2 6.09,4.18 6.09,4.18 C6.52,4.04 6.79,3.88 7.09,3.68 C7.37,3.5 7.52,3.18 7.52,2.87 C7.59,3.05 7.59,3.25 7.51,3.45z "/><path id="_R_G_L_0_G_L_8_G_D_10_P_0" fill="#92c3df" fill-opacity="1" fill-rule="nonzero" d=" M3.46 4.61 C3.44,4.59 3.42,4.58 3.39,4.57 C3.39,4.57 3.39,4.84 3.39,4.84 C3.84,4.72 4.3,4.67 4.72,4.67 C5.15,4.67 5.61,4.72 6.06,4.84 C6.06,4.84 6.06,4.57 6.06,4.57 C6.03,4.58 6.01,4.59 5.99,4.61 C5.99,4.61 5.99,3.92 5.99,3.92 C6,3.9 6.03,3.88 6.06,3.86 C6.06,3.86 6.06,3.54 6.06,3.54 C6.06,3.54 6.06,3.4 6.06,3.4 C6.06,3.32 6.02,3.24 5.97,3.17 C5.86,3 5.64,2.86 5.35,2.78 C5.16,2.73 4.95,2.69 4.72,2.69 C4.5,2.69 4.29,2.73 4.11,2.78 C3.81,2.86 3.59,3 3.48,3.17 C3.43,3.24 3.39,3.32 3.39,3.4 C3.39,3.4 3.39,3.54 3.39,3.54 C3.39,3.54 3.39,3.86 3.39,3.86 C3.42,3.88 3.45,3.9 3.46,3.92 C3.46,3.92 3.46,4.61 3.46,4.61z "/><path id="_R_G_L_0_G_L_8_G_D_11_P_0" fill="#92c3df" fill-opacity="1" fill-rule="nonzero" d=" M6.4 16.72 C6.22,15.65 6.76,15.01 7.35,13.69 C8.03,12.16 9.2,9.22 8.74,7.36 C8.68,7.12 8.59,6.9 8.49,6.7 C8.49,6.7 8.49,6.73 8.49,6.73 C8.49,6.73 7.79,5.84 7.79,5.84 C7.79,5.81 7.79,5.77 7.8,5.74 C7.3,5.28 6.69,4.99 6.06,4.84 C5.61,4.72 5.15,4.67 4.72,4.67 C4.3,4.67 3.84,4.72 3.39,4.84 C2.76,4.99 2.15,5.28 1.65,5.74 C1.66,5.77 1.66,5.81 1.66,5.84 C1.66,5.84 0.96,6.73 0.96,6.73 C0.96,6.73 0.95,6.7 0.95,6.7 C0.86,6.9 0.77,7.12 0.71,7.36 C0.25,9.22 1.42,12.16 2.1,13.69 C2.69,15.01 3.23,15.65 3.05,16.72 C2.92,17.54 2.09,18.94 1.98,19.16 C1.86,19.4 1.85,19.61 2.02,19.66 C2.07,19.67 2.15,19.7 2.27,19.74 C2.34,19.76 2.44,19.72 2.54,19.74 C2.62,19.76 2.68,19.85 2.78,19.87 C3.22,19.96 3.86,20.05 4.72,20.05 C4.72,20.05 4.73,20.05 4.73,20.05 C5.59,20.05 6.23,19.96 6.67,19.87 C6.78,19.85 6.87,19.75 6.95,19.73 C7.04,19.7 7.12,19.76 7.18,19.74 C7.18,19.74 7.18,19.74 7.18,19.74 C7.3,19.7 7.38,19.67 7.43,19.66 C7.6,19.61 7.59,19.4 7.47,19.16 C7.36,18.94 6.53,17.54 6.4,16.72z "/><path id="_R_G_L_0_G_L_8_G_D_12_P_0" fill="#92c3df" fill-opacity="1" fill-rule="nonzero" d=" M1.66 5.84 C1.66,5.81 1.66,5.77 1.65,5.74 C1.62,5.47 1.68,5.05 1.82,4.81 C2.18,4.18 2.91,4.27 3.39,4.57 C3.42,4.58 3.44,4.59 3.46,4.61 C3.46,4.61 3.46,3.92 3.46,3.92 C3.45,3.9 3.42,3.88 3.39,3.86 C3.04,3.6 2.07,3.52 1.49,4.06 C0.7,4.77 0.93,6.55 0.95,6.7 C0.96,6.71 0.96,6.73 0.96,6.73 C0.96,6.73 1.66,5.84 1.66,5.84z "/><path id="_R_G_L_0_G_L_8_G_D_13_P_0" fill="#92c3df" fill-opacity="1" fill-rule="nonzero" d=" M5.99 4.61 C6.01,4.59 6.03,4.58 6.06,4.57 C6.54,4.27 7.27,4.18 7.63,4.81 C7.77,5.05 7.83,5.47 7.8,5.74 C7.79,5.77 7.79,5.81 7.79,5.84 C7.79,5.84 8.49,6.72 8.49,6.72 C8.49,6.72 8.49,6.7 8.5,6.7 C8.52,6.55 8.75,4.77 7.96,4.06 C7.38,3.52 6.41,3.6 6.06,3.86 C6.03,3.88 6,3.9 5.99,3.92 C5.99,3.92 5.99,4.61 5.99,4.61z "/><path id="_R_G_L_0_G_L_8_G_D_14_P_0" fill="#ffffff" fill-opacity="1" fill-rule="nonzero" d=" M3.69 3.09 C3.69,3.02 3.7,2.97 3.72,2.93 C3.84,2.86 3.97,2.81 4.12,2.76 C4.08,2.79 4.03,2.85 4.03,2.96 C4.03,3.19 4.03,4.17 4.03,4.28 C4.05,4.54 4.17,4.73 4.26,4.73 C4.34,4.72 3.69,4.83 3.69,4.83 C3.69,4.83 3.69,3.09 3.69,3.09z "/><path id="_R_G_L_0_G_L_8_G_D_15_P_0" fill="#ffffff" fill-opacity="1" fill-rule="nonzero" d=" M5.19 4.73 C5.28,4.73 5.39,4.54 5.41,4.28 C5.42,4.17 5.42,3.19 5.42,2.96 C5.41,2.85 5.37,2.79 5.33,2.76 C5.48,2.81 5.61,2.86 5.72,2.93 C5.75,2.97 5.76,3.02 5.76,3.09 C5.76,3.09 5.76,4.83 5.76,4.83 C5.76,4.83 5.11,4.72 5.19,4.73z "/><path id="_R_G_L_0_G_L_8_G_D_16_P_0" fill="#a6deff" fill-opacity="1" fill-rule="nonzero" d=" M5.78 19.66 C5.78,19.66 5.34,19.73 4.73,19.73 C4.11,19.73 3.67,19.66 3.67,19.66 C3.67,19.66 3.99,17.06 4.73,17.06 C5.46,17.06 5.78,19.66 5.78,19.66z "/><path id="_R_G_L_0_G_L_8_G_D_17_P_0" fill="#5e7d8e" fill-opacity="1" fill-rule="nonzero" d=" M2.05 4.34 C2.8,3.9 3.46,4.47 3.46,4.47 C3.46,4.47 3.42,4.58 3.42,4.58 C2.93,4.27 2.18,4.17 1.82,4.81 C1.66,5.08 1.61,5.58 1.66,5.84 C1.66,5.84 1.53,6 1.53,6 C1.5,5.71 1.42,4.72 2.05,4.34z "/><path id="_R_G_L_0_G_L_8_G_D_18_P_0" fill="#5e7d8e" fill-opacity="1" fill-rule="nonzero" d=" M7.4 4.34 C6.65,3.9 5.99,4.47 5.99,4.47 C5.99,4.47 6.03,4.58 6.03,4.58 C6.52,4.27 7.27,4.17 7.63,4.81 C7.79,5.08 7.84,5.58 7.79,5.84 C7.79,5.84 7.92,6 7.92,6 C7.95,5.71 8.03,4.72 7.4,4.34z "/><path id="_R_G_L_0_G_L_8_G_D_19_P_0" fill="#f4f5f5" fill-opacity="1" fill-rule="nonzero" d=" M8.8 9.06 C8.62,9.01 8.42,8.97 8.24,8.92 C8.23,9.01 8.22,9.09 8.21,9.18 C8.39,9.23 8.59,9.27 8.76,9.32 C8.77,9.23 8.79,9.14 8.8,9.06z "/><path id="_R_G_L_0_G_L_8_G_D_20_P_0" fill="#f4f5f5" fill-opacity="1" fill-rule="nonzero" d=" M6.5 8.62 C6.48,7.65 5.69,6.86 4.73,6.86 C3.76,6.86 2.97,7.65 2.95,8.62 C2.67,8.65 2.41,8.69 2.15,8.74 C2.15,8.82 2.16,8.91 2.16,8.99 C2.42,8.95 2.68,8.9 2.96,8.87 C3.07,9.76 3.82,10.45 4.73,10.45 C5.63,10.45 6.38,9.76 6.48,8.87 C6.77,8.9 7.03,8.95 7.29,8.99 C7.29,8.91 7.3,8.82 7.3,8.74 C7.04,8.69 6.78,8.65 6.5,8.62z "/><path id="_R_G_L_0_G_L_8_G_D_21_P_0" fill="#f4f5f5" fill-opacity="1" fill-rule="nonzero" d=" M0.65 9.06 C0.66,9.15 0.68,9.23 0.69,9.32 C0.86,9.27 1.06,9.23 1.24,9.18 C1.23,9.09 1.22,9.01 1.21,8.92 C1.03,8.97 0.83,9.01 0.65,9.06z "/><path id="_R_G_L_0_G_L_8_G_D_22_P_0" fill="#ffffff" fill-opacity="1" fill-rule="nonzero" d=" M4.17 4.92 C4.17,4.92 3.87,4.96 3.87,4.96 C3.13,5.05 0.91,5.67 1.21,8.92 C1.22,9.01 1.23,9.09 1.24,9.18 C1.25,9.23 1.25,9.28 1.26,9.33 C1.96,14.07 3.72,15.4 3.34,17.06 C3.23,17.56 2.96,18.45 2.5,19.17 C2.37,19.36 2.3,19.56 2.27,19.74 C2.34,19.76 2.44,19.72 2.54,19.74 C2.62,19.76 2.68,19.85 2.78,19.87 C2.82,19.53 2.9,19.43 3.04,19.17 C3.44,18.42 3.7,17.45 3.74,17.04 C3.87,15.74 3.4,14.66 2.68,12.08 C2.45,11.27 2.21,10.14 2.16,8.99 C2.16,8.91 2.15,8.82 2.15,8.74 C2.13,7.08 2.57,5.48 4.17,4.92z "/><path id="_R_G_L_0_G_L_8_G_D_23_P_0" fill="#ffffff" fill-opacity="1" fill-rule="nonzero" d=" M5.58 4.96 C5.58,4.96 5.28,4.92 5.28,4.92 C6.88,5.48 7.32,7.08 7.3,8.74 C7.3,8.82 7.29,8.91 7.29,9 C7.24,10.14 7,11.27 6.77,12.08 C6.05,14.66 5.58,15.74 5.71,17.04 C5.75,17.45 6.01,18.42 6.4,19.16 C6.55,19.43 6.63,19.53 6.67,19.87 C6.78,19.85 6.87,19.75 6.95,19.73 C7.04,19.7 7.12,19.76 7.18,19.74 C7.15,19.56 7.08,19.36 6.95,19.17 C6.48,18.45 6.22,17.56 6.11,17.06 C5.73,15.4 7.49,14.07 8.19,9.33 C8.2,9.28 8.2,9.23 8.21,9.18 C8.22,9.09 8.23,9.01 8.24,8.92 C8.53,5.67 6.32,5.05 5.58,4.96z "/><path id="_R_G_L_0_G_L_8_G_D_24_P_0" fill="#92c3df" fill-opacity="1" fill-rule="nonzero" d=" M4.72 10.2 C3.95,10.2 3.3,9.61 3.21,8.85 C3.7,8.8 4.2,8.78 4.72,8.78 C5.24,8.78 5.75,8.8 6.24,8.85 C6.14,9.61 5.5,10.2 4.72,10.2z "/><path id="_R_G_L_0_G_L_8_G_D_25_P_0" fill="#92c3df" fill-opacity="1" fill-rule="nonzero" d=" M4.72 8.53 C4.2,8.53 3.69,8.55 3.2,8.6 C3.23,7.77 3.9,7.11 4.72,7.11 C5.55,7.11 6.22,7.77 6.25,8.6 C5.76,8.55 5.25,8.53 4.72,8.53z "/></g><g id="_R_G_L_0_G_L_7_G" transform=" translate(911.812, 319.99) scale(19.8, 19.8) translate(-0.63, -16.251)"><path id="_R_G_L_0_G_L_7_G_D_0_P_0" fill="#ffc900" fill-opacity="1" fill-rule="nonzero" d=" M0.25 25.85 C0.25,25.85 1.01,25.85 1.01,25.85 C1.01,25.85 1.01,19.45 1.01,19.45 C1.01,19.45 0.25,19.45 0.25,19.45 C0.25,19.45 0.25,25.85 0.25,25.85z "/><path id="_R_G_L_0_G_L_7_G_D_1_P_0" fill="#ffffff" fill-opacity="1" fill-rule="nonzero" d=" M0.25 19.45 C0.25,19.45 1.01,19.45 1.01,19.45 C1.01,19.45 1.01,13.05 1.01,13.05 C1.01,13.05 0.25,13.05 0.25,13.05 C0.25,13.05 0.25,19.45 0.25,19.45z "/><path id="_R_G_L_0_G_L_7_G_D_2_P_0" fill="#00b754" fill-opacity="1" fill-rule="nonzero" d=" M0.25 13.05 C0.25,13.05 1.01,13.05 1.01,13.05 C1.01,13.05 1.01,6.65 1.01,6.65 C1.01,6.65 0.25,6.65 0.25,6.65 C0.25,6.65 0.25,13.05 0.25,13.05z "/><path id="_R_G_L_0_G_L_7_G_D_3_P_0" fill="#003cdc" fill-opacity="1" fill-rule="nonzero" d=" M0.25 6.65 C0.25,6.65 1.01,6.65 1.01,6.65 C1.01,6.65 1.01,0.25 1.01,0.25 C1.01,0.25 0.25,0.25 0.25,0.25 C0.25,0.25 0.25,6.65 0.25,6.65z "/><path id="_R_G_L_0_G_L_7_G_D_4_P_0" fill="#ff0000" fill-opacity="1" fill-rule="nonzero" d=" M0.25 32.25 C0.25,32.25 1.01,32.25 1.01,32.25 C1.01,32.25 1.01,25.85 1.01,25.85 C1.01,25.85 0.25,25.85 0.25,25.85 C0.25,25.85 0.25,32.25 0.25,32.25z "/></g><g id="_R_G_L_0_G_L_6_G_M"><g id="_R_G_L_0_G_L_6_G" transform=" translate(117.34, 102.2)"><path id="_R_G_L_0_G_L_6_G_D_0_P_0" fill="#003cdc" fill-opacity="1" fill-rule="nonzero" d=" M4.66 1.07 C4.66,0.32 5.05,0.25 5.05,0.25 C5.05,0.25 5.45,0.32 5.45,1.07 C5.45,1.81 5.05,2.93 5.05,2.93 C5.05,2.93 4.66,1.81 4.66,1.07z "/><path id="_R_G_L_0_G_L_6_G_D_1_P_0" fill="#ff0000" fill-opacity="1" fill-rule="nonzero" d=" M4.62 2.98 C4.79,3.49 4.53,3.64 4.53,3.64 C4.53,3.64 4.24,3.67 4.07,3.16 C3.9,2.64 3.93,1.77 3.93,1.77 C3.93,1.77 4.45,2.46 4.62,2.98z "/><path id="_R_G_L_0_G_L_6_G_D_2_P_0" fill="#ffc900" fill-opacity="1" fill-rule="nonzero" d=" M2.28 2.1 C1.84,1.5 2.12,1.21 2.12,1.21 C2.12,1.21 2.48,1.03 2.92,1.63 C3.35,2.23 3.69,3.37 3.69,3.37 C3.69,3.37 2.71,2.7 2.28,2.1z "/><path id="_R_G_L_0_G_L_6_G_D_3_P_0" fill="#ffffff" fill-opacity="1" fill-rule="nonzero" d=" M3.37 3.67 C3.81,3.99 3.68,4.25 3.68,4.25 C3.68,4.25 3.47,4.45 3.03,4.14 C2.59,3.82 2.1,3.1 2.1,3.1 C2.1,3.1 2.93,3.35 3.37,3.67z "/><path id="_R_G_L_0_G_L_6_G_D_4_P_0" fill="#00b754" fill-opacity="1" fill-rule="nonzero" d=" M0.95 4.33 C0.25,4.1 0.3,3.71 0.3,3.71 C0.3,3.71 0.49,3.35 1.2,3.58 C1.9,3.81 2.85,4.53 2.85,4.53 C2.85,4.53 1.66,4.56 0.95,4.33z "/><path id="_R_G_L_0_G_L_6_G_D_5_P_0" fill="#003cdc" fill-opacity="1" fill-rule="nonzero" d=" M2.76 4.96 C3.3,4.96 3.36,5.25 3.36,5.25 C3.36,5.25 3.3,5.54 2.76,5.54 C2.22,5.54 1.4,5.25 1.4,5.25 C1.4,5.25 2.22,4.96 2.76,4.96z "/><path id="_R_G_L_0_G_L_6_G_D_6_P_0" fill="#ff0000" fill-opacity="1" fill-rule="nonzero" d=" M1.2 6.92 C0.49,7.15 0.3,6.8 0.3,6.8 C0.3,6.8 0.25,6.4 0.95,6.17 C1.66,5.94 2.85,5.97 2.85,5.97 C2.85,5.97 1.9,6.69 1.2,6.92z "/><path id="_R_G_L_0_G_L_6_G_D_7_P_0" fill="#ffc900" fill-opacity="1" fill-rule="nonzero" d=" M3.03 6.37 C3.47,6.05 3.68,6.25 3.68,6.25 C3.68,6.25 3.81,6.51 3.37,6.83 C2.93,7.15 2.09,7.4 2.09,7.4 C2.09,7.4 2.59,6.68 3.03,6.37z "/><path id="_R_G_L_0_G_L_6_G_D_8_P_0" fill="#ffffff" fill-opacity="1" fill-rule="nonzero" d=" M2.92 8.87 C2.48,9.47 2.12,9.3 2.12,9.3 C2.12,9.3 1.84,9 2.28,8.4 C2.71,7.8 3.69,7.13 3.69,7.13 C3.69,7.13 3.35,8.27 2.92,8.87z "/><path id="_R_G_L_0_G_L_6_G_D_9_P_0" fill="#00b754" fill-opacity="1" fill-rule="nonzero" d=" M4.07 7.34 C4.24,6.83 4.53,6.86 4.53,6.86 C4.53,6.86 4.79,7.01 4.62,7.52 C4.45,8.04 3.93,8.73 3.93,8.73 C3.93,8.73 3.9,7.86 4.07,7.34z "/><path id="_R_G_L_0_G_L_6_G_D_10_P_0" fill="#003cdc" fill-opacity="1" fill-rule="nonzero" d=" M5.45 9.43 C5.45,10.17 5.06,10.25 5.06,10.25 C5.06,10.25 4.66,10.17 4.66,9.43 C4.66,8.69 5.06,7.57 5.06,7.57 C5.06,7.57 5.45,8.69 5.45,9.43z "/><path id="_R_G_L_0_G_L_6_G_D_11_P_0" fill="#ff0000" fill-opacity="1" fill-rule="nonzero" d=" M5.49 7.52 C5.32,7.01 5.58,6.86 5.58,6.86 C5.58,6.86 5.87,6.83 6.04,7.34 C6.21,7.86 6.19,8.73 6.19,8.73 C6.19,8.73 5.66,8.04 5.49,7.52z "/><path id="_R_G_L_0_G_L_6_G_D_12_P_0" fill="#ffc900" fill-opacity="1" fill-rule="nonzero" d=" M7.83 8.4 C8.27,9 7.99,9.3 7.99,9.3 C7.99,9.3 7.63,9.47 7.2,8.87 C6.76,8.27 6.42,7.13 6.42,7.13 C6.42,7.13 7.4,7.8 7.83,8.4z "/><path id="_R_G_L_0_G_L_6_G_D_13_P_0" fill="#ffffff" fill-opacity="1" fill-rule="nonzero" d=" M6.74 6.83 C6.3,6.51 6.43,6.25 6.43,6.25 C6.43,6.25 6.64,6.05 7.08,6.37 C7.52,6.68 8.02,7.4 8.02,7.4 C8.02,7.4 7.18,7.15 6.74,6.83z "/><path id="_R_G_L_0_G_L_6_G_D_14_P_0" fill="#00b754" fill-opacity="1" fill-rule="nonzero" d=" M9.16 6.17 C9.86,6.4 9.81,6.8 9.81,6.8 C9.81,6.8 9.62,7.15 8.91,6.92 C8.21,6.69 7.26,5.97 7.26,5.97 C7.26,5.97 8.45,5.94 9.16,6.17z "/><path id="_R_G_L_0_G_L_6_G_D_15_P_0" fill="#003cdc" fill-opacity="1" fill-rule="nonzero" d=" M7.35 5.54 C6.81,5.54 6.75,5.25 6.75,5.25 C6.75,5.25 6.81,4.96 7.35,4.96 C7.89,4.96 8.71,5.25 8.71,5.25 C8.71,5.25 7.89,5.54 7.35,5.54z "/><path id="_R_G_L_0_G_L_6_G_D_16_P_0" fill="#ff0000" fill-opacity="1" fill-rule="nonzero" d=" M8.91 3.58 C9.62,3.35 9.81,3.71 9.81,3.71 C9.81,3.71 9.86,4.1 9.16,4.33 C8.45,4.56 7.26,4.53 7.26,4.53 C7.26,4.53 8.21,3.81 8.91,3.58z "/><path id="_R_G_L_0_G_L_6_G_D_17_P_0" fill="#ffc900" fill-opacity="1" fill-rule="nonzero" d=" M7.08 4.14 C6.64,4.45 6.43,4.25 6.43,4.25 C6.43,4.25 6.3,3.99 6.74,3.67 C7.18,3.35 8.02,3.1 8.02,3.1 C8.02,3.1 7.52,3.82 7.08,4.14z "/><path id="_R_G_L_0_G_L_6_G_D_18_P_0" fill="#ffffff" fill-opacity="1" fill-rule="nonzero" d=" M7.2 1.63 C7.63,1.03 8,1.21 8,1.21 C8,1.21 8.27,1.5 7.83,2.1 C7.4,2.7 6.42,3.37 6.42,3.37 C6.42,3.37 6.76,2.23 7.2,1.63z "/><path id="_R_G_L_0_G_L_6_G_D_19_P_0" fill="#00b754" fill-opacity="1" fill-rule="nonzero" d=" M6.04 3.16 C5.87,3.67 5.58,3.64 5.58,3.64 C5.58,3.64 5.32,3.49 5.49,2.98 C5.66,2.46 6.19,1.77 6.19,1.77 C6.19,1.77 6.21,2.64 6.04,3.16z "/></g></g><g id="_R_G_L_0_G_L_5_G" transform=" translate(769.582, 201.264)"><path id="_R_G_L_0_G_L_5_G_D_0_P_0" fill="#003cdc" fill-opacity="1" fill-rule="nonzero" d=" M4.66 1.07 C4.66,0.33 5.06,0.25 5.06,0.25 C5.06,0.25 5.45,0.33 5.45,1.07 C5.45,1.81 5.06,2.93 5.06,2.93 C5.06,2.93 4.66,1.81 4.66,1.07z "/><path id="_R_G_L_0_G_L_5_G_D_1_P_0" fill="#ff0000" fill-opacity="1" fill-rule="nonzero" d=" M4.62 2.98 C4.79,3.5 4.53,3.64 4.53,3.64 C4.53,3.64 4.24,3.67 4.07,3.16 C3.9,2.64 3.92,1.77 3.92,1.77 C3.92,1.77 4.45,2.47 4.62,2.98z "/><path id="_R_G_L_0_G_L_5_G_D_2_P_0" fill="#ffc900" fill-opacity="1" fill-rule="nonzero" d=" M2.28 2.1 C1.84,1.5 2.12,1.21 2.12,1.21 C2.12,1.21 2.48,1.03 2.92,1.63 C3.35,2.23 3.69,3.37 3.69,3.37 C3.69,3.37 2.71,2.7 2.28,2.1z "/><path id="_R_G_L_0_G_L_5_G_D_3_P_0" fill="#ffffff" fill-opacity="1" fill-rule="nonzero" d=" M3.37 3.67 C3.81,3.99 3.68,4.25 3.68,4.25 C3.68,4.25 3.47,4.45 3.03,4.14 C2.59,3.82 2.1,3.1 2.1,3.1 C2.1,3.1 2.93,3.35 3.37,3.67z "/><path id="_R_G_L_0_G_L_5_G_D_4_P_0" fill="#00b754" fill-opacity="1" fill-rule="nonzero" d=" M0.95 4.33 C0.25,4.1 0.3,3.71 0.3,3.71 C0.3,3.71 0.49,3.35 1.2,3.58 C1.9,3.81 2.85,4.53 2.85,4.53 C2.85,4.53 1.66,4.56 0.95,4.33z "/><path id="_R_G_L_0_G_L_5_G_D_5_P_0" fill="#003cdc" fill-opacity="1" fill-rule="nonzero" d=" M2.76 4.96 C3.3,4.96 3.36,5.25 3.36,5.25 C3.36,5.25 3.3,5.54 2.76,5.54 C2.22,5.54 1.4,5.25 1.4,5.25 C1.4,5.25 2.22,4.96 2.76,4.96z "/><path id="_R_G_L_0_G_L_5_G_D_6_P_0" fill="#ff0000" fill-opacity="1" fill-rule="nonzero" d=" M1.2 6.92 C0.49,7.15 0.3,6.8 0.3,6.8 C0.3,6.8 0.25,6.4 0.95,6.17 C1.66,5.94 2.85,5.97 2.85,5.97 C2.85,5.97 1.9,6.69 1.2,6.92z "/><path id="_R_G_L_0_G_L_5_G_D_7_P_0" fill="#ffc900" fill-opacity="1" fill-rule="nonzero" d=" M3.03 6.37 C3.47,6.05 3.68,6.25 3.68,6.25 C3.68,6.25 3.81,6.51 3.37,6.83 C2.93,7.15 2.09,7.4 2.09,7.4 C2.09,7.4 2.59,6.68 3.03,6.37z "/><path id="_R_G_L_0_G_L_5_G_D_8_P_0" fill="#ffffff" fill-opacity="1" fill-rule="nonzero" d=" M2.92 8.87 C2.48,9.47 2.12,9.3 2.12,9.3 C2.12,9.3 1.84,9 2.28,8.4 C2.71,7.8 3.69,7.13 3.69,7.13 C3.69,7.13 3.35,8.27 2.92,8.87z "/><path id="_R_G_L_0_G_L_5_G_D_9_P_0" fill="#00b754" fill-opacity="1" fill-rule="nonzero" d=" M4.07 7.34 C4.24,6.83 4.53,6.86 4.53,6.86 C4.53,6.86 4.79,7.01 4.62,7.52 C4.45,8.04 3.93,8.73 3.93,8.73 C3.93,8.73 3.91,7.86 4.07,7.34z "/><path id="_R_G_L_0_G_L_5_G_D_10_P_0" fill="#003cdc" fill-opacity="1" fill-rule="nonzero" d=" M5.45 9.43 C5.45,10.17 5.06,10.25 5.06,10.25 C5.06,10.25 4.66,10.17 4.66,9.43 C4.66,8.69 5.06,7.57 5.06,7.57 C5.06,7.57 5.45,8.69 5.45,9.43z "/><path id="_R_G_L_0_G_L_5_G_D_11_P_0" fill="#ff0000" fill-opacity="1" fill-rule="nonzero" d=" M5.49 7.52 C5.32,7.01 5.58,6.86 5.58,6.86 C5.58,6.86 5.87,6.83 6.04,7.34 C6.21,7.86 6.19,8.73 6.19,8.73 C6.19,8.73 5.66,8.04 5.49,7.52z "/><path id="_R_G_L_0_G_L_5_G_D_12_P_0" fill="#ffc900" fill-opacity="1" fill-rule="nonzero" d=" M7.83 8.4 C8.27,9 8,9.3 8,9.3 C8,9.3 7.63,9.47 7.2,8.87 C6.76,8.27 6.42,7.13 6.42,7.13 C6.42,7.13 7.4,7.8 7.83,8.4z "/><path id="_R_G_L_0_G_L_5_G_D_13_P_0" fill="#ffffff" fill-opacity="1" fill-rule="nonzero" d=" M6.74 6.83 C6.3,6.51 6.43,6.25 6.43,6.25 C6.43,6.25 6.64,6.05 7.08,6.37 C7.52,6.68 8.02,7.4 8.02,7.4 C8.02,7.4 7.18,7.15 6.74,6.83z "/><path id="_R_G_L_0_G_L_5_G_D_14_P_0" fill="#00b754" fill-opacity="1" fill-rule="nonzero" d=" M9.16 6.17 C9.86,6.4 9.81,6.8 9.81,6.8 C9.81,6.8 9.62,7.15 8.91,6.92 C8.21,6.69 7.26,5.97 7.26,5.97 C7.26,5.97 8.45,5.94 9.16,6.17z "/><path id="_R_G_L_0_G_L_5_G_D_15_P_0" fill="#003cdc" fill-opacity="1" fill-rule="nonzero" d=" M7.35 5.54 C6.81,5.54 6.75,5.25 6.75,5.25 C6.75,5.25 6.81,4.96 7.35,4.96 C7.89,4.96 8.71,5.25 8.71,5.25 C8.71,5.25 7.89,5.54 7.35,5.54z "/><path id="_R_G_L_0_G_L_5_G_D_16_P_0" fill="#ff0000" fill-opacity="1" fill-rule="nonzero" d=" M8.91 3.58 C9.62,3.35 9.81,3.71 9.81,3.71 C9.81,3.71 9.86,4.1 9.16,4.33 C8.45,4.56 7.26,4.53 7.26,4.53 C7.26,4.53 8.21,3.81 8.91,3.58z "/><path id="_R_G_L_0_G_L_5_G_D_17_P_0" fill="#ffc900" fill-opacity="1" fill-rule="nonzero" d=" M7.08 4.14 C6.64,4.45 6.43,4.25 6.43,4.25 C6.43,4.25 6.3,3.99 6.74,3.67 C7.18,3.35 8.02,3.1 8.02,3.1 C8.02,3.1 7.52,3.82 7.08,4.14z "/><path id="_R_G_L_0_G_L_5_G_D_18_P_0" fill="#ffffff" fill-opacity="1" fill-rule="nonzero" d=" M7.2 1.63 C7.63,1.03 8,1.21 8,1.21 C8,1.21 8.27,1.5 7.83,2.1 C7.4,2.7 6.42,3.37 6.42,3.37 C6.42,3.37 6.76,2.23 7.2,1.63z "/><path id="_R_G_L_0_G_L_5_G_D_19_P_0" fill="#00b754" fill-opacity="1" fill-rule="nonzero" d=" M6.04 3.16 C5.87,3.67 5.58,3.64 5.58,3.64 C5.58,3.64 5.32,3.49 5.49,2.98 C5.66,2.46 6.19,1.77 6.19,1.77 C6.19,1.77 6.21,2.64 6.04,3.16z "/></g><g id="_R_G_L_0_G_L_4_G" transform=" translate(428.192, 319.287) scale(19.8, 19.8) translate(-13.816, -12.334)"><path id="_R_G_L_0_G_L_4_G_D_0_P_0" fill="#d0af71" fill-opacity="1" fill-rule="nonzero" d=" M0.25 0.6 C0.25,0.4 0.41,0.25 0.6,0.25 C0.6,0.25 27.04,0.25 27.04,0.25 C27.23,0.25 27.38,0.4 27.38,0.6 C27.38,0.6 27.38,24.07 27.38,24.07 C27.38,24.26 27.23,24.42 27.04,24.42 C27.04,24.42 0.6,24.42 0.6,24.42 C0.41,24.42 0.25,24.26 0.25,24.07 C0.25,24.07 0.25,0.6 0.25,0.6z "/><path id="_R_G_L_0_G_L_4_G_D_1_P_0" fill="#bb181b" fill-opacity="1" fill-rule="nonzero" d=" M1.94 1.59 C1.74,1.59 1.59,1.75 1.59,1.94 C1.59,1.94 1.59,22.73 1.59,22.73 C1.59,22.92 1.74,23.08 1.94,23.08 C1.94,23.08 25.7,23.08 25.7,23.08 C25.89,23.08 26.04,22.92 26.04,22.73 C26.04,22.73 26.04,1.94 26.04,1.94 C26.04,1.75 25.89,1.59 25.7,1.59 C25.7,1.59 1.94,1.59 1.94,1.59z  M1.59 23.08 C1.59,23.08 26.04,23.08 26.04,23.08 C26.04,23.08 26.04,1.59 26.04,1.59 C26.04,1.59 1.59,1.59 1.59,1.59 C1.59,1.59 1.59,23.08 1.59,23.08z "/><path id="_R_G_L_0_G_L_4_G_D_2_P_0" fill="#ffffff" fill-opacity="1" fill-rule="nonzero" d=" M10.73 12.24 C10.73,12.24 10.73,19.85 10.73,19.85 C10.73,20.02 10.69,20.12 10.54,20.12 C10.39,20.12 10.33,20.02 10.33,19.85 C10.33,19.85 10.33,18.85 10.33,18.85 C10.33,18.85 9.95,18.85 9.95,18.85 C9.68,18.85 8.81,19.52 8.26,19.95 C8.08,20.08 7.93,20.2 7.85,20.25 C7.24,19.9 6.48,19.54 5.91,19.35 C5.81,19.45 5.72,19.53 5.63,19.61 C5.63,19.61 5.63,19.61 5.63,19.61 C5.46,19.77 5.32,19.9 5.22,20 C5.19,20.04 5.15,20.07 5.13,20.1 C5.04,20.18 5,20.23 4.95,20.23 C4.85,20.23 4.72,20.11 4.72,20 C4.72,19.9 4.95,19.65 6.02,18.55 C6.76,17.8 7.05,16.9 7.05,15.51 C7.05,13.23 6.07,11.27 4.93,11.27 C4.55,11.27 4.36,11.42 4.3,11.8 C4.28,11.99 4.2,12.05 4.11,12.05 C3.94,12.05 3.86,11.78 3.86,11.32 C3.86,10.27 4.59,9.43 5.5,9.43 C5.92,9.43 6.2,9.62 6.45,9.77 C6.66,9.91 6.84,10.03 7.05,10 C7.05,10 7.05,8.47 7.05,8.47 C7.05,8.07 6.91,7.73 6.61,7.48 C6.36,7.27 5.05,6.39 4.57,6.39 C4.48,6.39 4.41,6.41 4.35,6.43 C4.3,6.44 4.26,6.45 4.21,6.45 C4.15,6.45 4.12,6.43 4.12,6.39 C4.12,6.34 4.16,6.3 4.25,6.19 C4.26,6.17 4.28,6.16 4.29,6.14 C4.29,6.14 5.95,4.51 5.95,4.51 C5.97,4.49 5.98,4.48 5.99,4.47 C6.05,4.43 6.09,4.4 6.16,4.4 C6.5,4.4 7.43,5.03 8.19,5.55 C8.72,5.9 9.16,6.21 9.27,6.21 C9.47,6.21 10.07,5.84 10.72,5.43 C11.48,4.96 12.31,4.44 12.64,4.44 C12.8,4.44 12.96,4.57 14.04,5.44 C14.04,5.44 14.04,5.44 14.04,5.44 C14.11,5.5 14.18,5.56 14.26,5.62 C14.31,5.66 14.37,5.71 14.45,5.78 C14.67,5.96 14.98,6.22 15.27,6.4 C15.61,6.61 15.63,6.65 15.63,7.05 C15.84,7 16.07,6.84 17.39,5.77 C17.77,5.45 18.89,4.55 18.97,4.55 C19.08,4.55 20,4.93 21.37,5.49 C21.77,5.66 21.83,5.7 21.83,5.95 C21.83,5.95 21.83,16.8 21.83,16.8 C21.83,17.15 21.88,17.28 22.02,17.4 C22.65,17.95 23.04,18.16 23.25,18.16 C23.31,18.16 23.39,18.13 23.46,18.07 C23.56,17.92 23.58,17.91 23.65,17.91 C23.71,17.91 23.78,17.99 23.78,18.07 C23.78,18.2 22.83,19.37 21.86,20.13 C21.28,19.92 20.26,19.23 19.7,18.64 C19.51,18.43 19.47,18.39 19.47,18.03 C19.47,18.03 19.47,10.27 19.47,10.27 C19.47,9.37 19.76,8.76 20.81,7.35 C21.36,6.64 21.4,6.43 21.29,6.43 C21.24,6.43 20.77,6.76 20.34,7.05 C20.05,7.25 19.77,7.44 19.67,7.5 C19.63,7.47 19.58,7.45 19.54,7.42 C18.51,6.84 18.17,6.64 17.59,6.64 C17.25,6.64 17.02,6.81 17.02,7.02 C17.02,7.02 17.02,19.92 17.02,19.92 C17.02,20.09 16.93,20.21 16.81,20.21 C16.71,20.21 16.64,20.11 16.64,19.94 C16.64,19.94 16.64,18.98 16.64,18.98 C16.05,19.07 15.53,19.55 15.18,19.88 C15,20.05 14.86,20.17 14.79,20.17 C14.56,20.17 13.19,18.54 13.19,18.41 C13.19,18.41 13.19,12.24 13.19,12.24 C13.19,12.24 10.73,12.24 10.73,12.24z  M10.35 6.89 C10.35,6.47 10.31,6.33 10.23,6.33 C10.04,6.33 9.36,6.75 9.36,6.89 C9.36,6.89 9.36,12.7 9.36,12.7 C9.36,15.52 9.04,15.86 8.31,16.62 C8.3,16.63 8.29,16.65 8.27,16.66 C7.93,17.02 7.85,17.1 7.6,17.4 C8.04,18.01 9.51,18.28 10.36,18.24 C10.36,18.24 10.36,6.89 10.36,6.89 C10.36,6.89 10.35,6.89 10.35,6.89z  M13.19 10.25 C13.19,10.25 13.19,7.94 13.19,7.94 C13.19,7.5 11.61,6.31 11.09,6.31 C10.86,6.31 10.73,6.45 10.73,6.73 C10.73,6.73 10.73,10.25 10.73,10.25 C10.73,10.25 13.19,10.25 13.19,10.25z  M16.64 7.27 C16.64,7.23 16.62,7.21 16.56,7.21 C16.5,7.21 16.39,7.25 16.32,7.29 C16.32,7.29 15.84,7.59 15.84,7.59 C15.57,7.75 15.48,7.84 15.48,7.97 C15.48,7.97 15.48,10.06 15.48,10.06 C15.48,10.21 15.67,10.31 15.82,10.31 C15.82,10.31 16.64,10.31 16.64,10.31 C16.64,10.31 16.64,7.27 16.64,7.27z  M15.84 12.2 C15.61,12.2 15.5,12.37 15.5,12.68 C15.5,12.68 15.5,16.98 15.5,16.98 C15.5,17.82 15.86,18.22 16.64,18.28 C16.64,18.28 16.64,12.2 16.64,12.2 C16.64,12.2 15.84,12.2 15.84,12.2z "/></g><g id="_R_G_L_0_G_L_3_G"><path id="_R_G_L_0_G_L_3_G_D_0_P_0" fill="#ffffff" fill-opacity="1" fill-rule="nonzero" d=" M7.81 2.48 C6.95,2.37 5.93,2.06 5.19,1.67 C5.19,1.67 3.04,3.49 2.03,6.32 C2.51,6.68 3.14,7.04 3.96,7.37 C4.8,7.7 5.64,7.88 6.43,7.96 C7.19,6.6 7.85,4.82 7.86,2.52 C7.86,2.52 7.86,2.49 7.86,2.49 C7.86,2.49 7.81,2.48 7.81,2.48z "/><path id="_R_G_L_0_G_L_3_G_D_1_P_0" fill="#e73323" fill-opacity="1" fill-rule="nonzero" d=" M4.46 0.31 C4.46,0.31 4.46,0.31 4.46,0.31 C4.46,0.31 4.46,0.31 4.46,0.31 C2.58,0.61 1.04,1.96 0.48,3.74 C0.48,3.74 0.3,5.04 2.03,6.32 C3.04,3.49 5.19,1.67 5.19,1.67 C5.04,1.59 4.89,1.51 4.77,1.42 C3.6,0.62 4.46,0.31 4.46,0.31z "/><path id="_R_G_L_0_G_L_3_G_D_2_P_0" stroke="#143cd6" stroke-linecap="round" stroke-linejoin="round" fill="none" stroke-width="0.036" stroke-opacity="1" d="  C9.31,2.33 9.28,2.29 9.3,2.31z "/><path id="_R_G_L_0_G_L_3_G_D_3_P_0" fill="#143cd7" fill-opacity="1" fill-rule="nonzero" d=" M4.77 1.42 C3.6,0.62 4.46,0.31 4.46,0.31 C4.72,0.27 4.98,0.25 5.25,0.25 C6.91,0.25 8.39,1.06 9.3,2.31 C8.5,2.86 5.94,2.22 4.77,1.42z "/><path id="_R_G_L_0_G_L_3_G_D_4_P_0" fill="#f7c849" fill-opacity="1" fill-rule="nonzero" d=" M0.48 3.74 C0.33,4.22 0.25,4.72 0.25,5.25 C0.25,5.47 0.27,5.69 0.29,5.9 C0.3,5.91 0.74,6.86 1.66,7.78 C1.71,6.98 2.03,6.32 2.03,6.32 C0.31,5.04 0.48,3.74 0.48,3.74z "/><path id="_R_G_L_0_G_L_3_G_D_5_P_0" fill="#143cd7" fill-opacity="1" fill-rule="nonzero" d=" M6.36 8.09 C5.99,8.74 5.63,9.19 5.31,9.49 C6.72,9.66 7.61,9.43 8.49,9.06 C8.93,8.68 9.31,8.23 9.6,7.72 C8.71,7.94 7.61,8.07 6.43,7.96 C6.41,8 6.38,8.05 6.36,8.09z "/><path id="_R_G_L_0_G_L_3_G_D_6_P_0" fill="#a39035" fill-opacity="1" fill-rule="nonzero" d=" M1.65 7.78 C0.74,6.86 0.29,5.91 0.29,5.9 C0.44,7.05 0.98,8.08 1.78,8.85 C1.66,8.49 1.63,8.12 1.65,7.78z "/><path id="_R_G_L_0_G_L_3_G_D_7_P_0" fill="#0e2a95" fill-opacity="1" fill-rule="nonzero" d=" M5.31 9.49 C4.65,10.1 4.17,10.13 4.16,10.13 C4.51,10.21 4.87,10.25 5.25,10.25 C6.49,10.25 7.62,9.8 8.49,9.06 C7.61,9.43 6.72,9.66 5.31,9.49z "/><path id="_R_G_L_0_G_L_3_G_D_8_P_0" fill="#000000" fill-opacity="1" fill-rule="nonzero" d=" M6.69 5.27 C6.69,5.8 6.28,6.23 5.76,6.23 C5.27,6.23 4.89,5.84 4.89,5.34 C4.9,4.8 5.32,4.36 5.84,4.37 C6.34,4.37 6.69,4.74 6.69,5.27z "/><path id="_R_G_L_0_G_L_3_G_D_9_P_0" fill="#000000" fill-opacity="1" fill-rule="nonzero" d=" M5.78 3.22 C5.78,3.72 5.4,4.12 4.91,4.12 C4.46,4.12 4.11,3.76 4.11,3.29 C4.12,2.79 4.51,2.39 4.99,2.39 C5.46,2.39 5.79,2.74 5.78,3.22z "/><path id="_R_G_L_0_G_L_3_G_D_10_P_0" fill="#000000" fill-opacity="1" fill-rule="nonzero" d=" M6.11 2.07 C6.1,2.09 6.05,2.24 6.09,2.51 C6.14,2.87 6.49,3.1 6.86,3.08 C7.21,3.07 7.46,2.84 7.54,2.44 C7.07,2.36 6.57,2.23 6.11,2.07z "/><path id="_R_G_L_0_G_L_3_G_D_11_P_0" fill="#010000" fill-opacity="1" fill-rule="nonzero" d=" M2.58 5.05 C3.01,5.13 3.35,4.97 3.56,4.6 C3.77,4.25 3.75,3.82 3.53,3.53 C3.21,3.97 2.88,4.48 2.58,5.05z "/><path id="_R_G_L_0_G_L_3_G_D_12_P_0" fill="#000000" fill-opacity="1" fill-rule="nonzero" d=" M7.54 5.17 C7.68,4.61 7.78,4.01 7.83,3.36 C7.35,3.4 6.97,3.81 6.96,4.33 C6.96,4.73 7.2,5.05 7.54,5.17z "/><path id="_R_G_L_0_G_L_3_G_D_13_P_0" fill="#000000" fill-opacity="1" fill-rule="nonzero" d=" M5.91 7.54 C5.91,7.67 5.93,7.79 5.98,7.9 C6.13,7.92 6.28,7.94 6.43,7.96 C6.67,7.54 6.89,7.09 7.09,6.59 C7.01,6.57 6.94,6.56 6.86,6.56 C6.34,6.56 5.92,6.99 5.91,7.54z  M6.26 8.26 C6.26,8.26 6.26,8.26 6.26,8.26 C6.26,8.26 6.26,8.26 6.26,8.26z "/><path id="_R_G_L_0_G_L_3_G_D_14_P_0" fill="#ffffff" fill-opacity="1" fill-rule="nonzero" d=" M1.67 7.59 C3.6,9.15 5.6,9.17 5.62,9.17 C5.75,9.01 5.88,8.84 6.02,8.64 C3.48,8.5 1.79,7 1.79,7 C1.74,7.17 1.7,7.37 1.67,7.59z "/><path id="_R_G_L_0_G_L_3_G_D_15_P_0" fill="#00b559" fill-opacity="1" fill-rule="nonzero" d=" M6.43 7.96 C5.64,7.88 4.8,7.7 3.96,7.37 C3.14,7.04 2.51,6.68 2.03,6.32 C2.03,6.32 1.9,6.59 1.79,7 C1.79,7 3.48,8.5 6.02,8.64 C6.16,8.44 6.3,8.21 6.43,7.96z "/><path id="_R_G_L_0_G_L_3_G_D_16_P_0" fill="#000000" fill-opacity="1" fill-rule="nonzero" d=" M2.76 6.8 C3.1,6.99 3.49,7.18 3.94,7.36 C4.29,7.18 4.5,6.9 4.52,6.49 C4.55,6.07 4.28,5.66 3.89,5.55 C3.47,5.42 3.03,5.61 2.83,6 C2.7,6.26 2.68,6.52 2.75,6.79 C2.75,6.79 2.76,6.79 2.76,6.8z "/><path id="_R_G_L_0_G_L_3_G_D_17_P_0" fill="#00b559" fill-opacity="1" fill-rule="nonzero" d=" M1.66 7.78 C2.32,8.44 3.23,9.09 4.41,9.34 C4.73,9.4 5.03,9.45 5.31,9.49 C5.41,9.4 5.51,9.29 5.62,9.17 C5.6,9.17 3.6,9.15 1.68,7.59 C1.67,7.65 1.66,7.72 1.66,7.78z "/><path id="_R_G_L_0_G_L_3_G_D_18_P_0" fill="#a8b3ad" fill-opacity="1" fill-rule="nonzero" d=" M5.19 9.6 C3.17,9.34 1.65,8.08 1.65,8.08 C1.65,8.22 1.66,8.37 1.69,8.51 C1.88,8.66 2.19,8.88 2.71,9.17 C3.87,9.81 4.85,9.85 4.85,9.85 C4.96,9.78 5.07,9.7 5.19,9.6z "/><path id="_R_G_L_0_G_L_3_G_D_19_P_0" fill="#027e42" fill-opacity="1" fill-rule="nonzero" d=" M4.41 9.34 C3.23,9.09 2.32,8.44 1.66,7.78 C1.65,7.88 1.65,7.98 1.65,8.08 C1.65,8.08 3.17,9.34 5.19,9.6 C5.23,9.56 5.26,9.53 5.31,9.49 C5.03,9.45 4.73,9.4 4.41,9.34z "/><path id="_R_G_L_0_G_L_3_G_D_20_P_0" fill="#027e42" fill-opacity="1" fill-rule="nonzero" d=" M1.69 8.51 C1.71,8.62 1.74,8.74 1.78,8.85 C2.43,9.48 3.24,9.93 4.16,10.13 C4.16,10.13 4.44,10.11 4.85,9.85 C4.85,9.85 3.87,9.81 2.71,9.17 C2.19,8.88 1.88,8.66 1.69,8.51z "/><path id="_R_G_L_0_G_L_3_G_D_21_P_0" fill="#000000" fill-opacity="1" fill-rule="nonzero" d=" M9.3 2.31 C9.01,2.52 8.48,2.56 7.86,2.49 C7.86,2.49 7.86,2.52 7.86,2.52 C7.85,4.82 7.19,6.6 6.43,7.96 C7.62,8.07 8.71,7.94 9.6,7.72 C10.01,6.99 10.25,6.15 10.25,5.25 C10.25,4.13 9.92,3.15 9.3,2.31z "/></g><g id="_R_G_L_0_G_L_2_G_M"><g id="_R_G_L_0_G_L_2_G" transform=" translate(1276, 320) scale(0.95, 0.95) translate(-180.647, -283)"><path id="_R_G_L_0_G_L_2_G_D_0_P_0" fill="#191513" fill-opacity="1" fill-rule="nonzero" d=" M308.82 83.46 C276.31,32.18 231.19,0.35 180.65,0 C79.56,0.52 0,127.58 0,283.08 C0,360.74 19.93,431.43 52.46,482.69 C84.99,533.96 130.1,565.81 180.65,566 C231.19,565.81 276.31,533.96 308.82,482.69 C341.36,431.43 361.29,360.74 361.29,283.08 C361.29,205.4 341.36,134.72 308.82,83.46z "/><path id="_R_G_L_0_G_L_2_G_D_1_P_0" fill="#f62711" fill-opacity="1" fill-rule="nonzero" d=" M341.63 174.85 C332.7,141.46 319.76,111.48 303.84,86.46 C287.76,61.4 268.87,41.14 248.06,27.17 C227.25,13.39 204.61,5.72 180.65,5.72 C156.69,5.72 134.04,13.39 113.23,27.17 C92.42,41.14 73.54,61.4 57.45,86.46 C41.53,111.48 28.59,141.46 19.67,174.85 C10.75,208.06 5.85,244.68 5.85,283.17 C5.85,359.82 25.63,429.48 57.45,479.55 C73.54,504.6 92.42,524.85 113.23,538.82 C134.04,552.63 156.69,560.28 180.65,560.28 C204.61,560.28 227.25,552.63 248.06,538.82 C268.87,524.85 287.76,504.6 303.84,479.55 C335.67,429.48 355.44,359.82 355.44,283.17 C355.44,244.68 350.54,208.06 341.63,174.85z "/><path id="_R_G_L_0_G_L_2_G_D_2_P_0" fill="#191513" fill-opacity="1" fill-rule="nonzero" d=" M180.65 544.45 C91.28,543.92 21.42,426.42 21.42,283.17 C21.42,139.76 91.28,22.23 180.65,21.73 C270.01,22.23 339.87,139.76 339.87,283.17 C339.87,426.42 270.01,543.92 180.65,544.45z "/><path id="_R_G_L_0_G_L_2_G_D_3_P_0" fill="#ffffff" fill-opacity="1" fill-rule="nonzero" d=" M180.65 129.37 C240.63,129.37 292.64,161.91 319.41,209.76 C312.23,170.78 299.82,135.84 283.2,107.57 C256.8,62.77 220.52,35.55 180.65,35.37 C140.77,35.55 104.49,62.77 78.1,107.57 C61.47,135.84 49.06,170.78 41.89,209.76 C68.65,161.91 120.66,129.37 180.65,129.37z "/><path id="_R_G_L_0_G_L_2_G_D_4_P_0" fill="#ffffff" fill-opacity="1" fill-rule="nonzero" d=" M180.65 436.8 C120.66,436.8 68.82,404.28 42.07,356.42 C49.06,395.41 61.47,430.32 78.1,458.45 C91.38,480.74 106.94,498.98 124.43,511.4 C141.74,524 160.72,530.82 180.65,530.82 C200.58,530.82 219.55,524 236.86,511.4 C254.35,498.98 269.91,480.74 283.2,458.45 C299.82,430.32 312.23,395.41 319.23,356.42 C292.47,404.28 240.63,436.8 180.65,436.8z "/><path id="_R_G_L_0_G_L_2_G_D_5_P_0" fill="#191513" fill-opacity="1" fill-rule="nonzero" d=" M233.04 438.11 C223.27,441.38 217.8,448.82 221.64,459.69 C224.23,467.09 232.01,471.62 241.58,468.45 C244.92,467.29 248.56,465.28 249.73,461.51 C249.73,461.51 249.92,461.61 249.92,461.61 C253.13,470.94 249.92,474.76 246.06,476.69 C242.24,478.49 238.73,477.57 236.45,474.89 C236.45,474.89 236.42,474.85 236.42,474.85 C236.42,474.85 229.99,479.18 229.99,479.18 C233.72,484.62 240.7,486.28 248.41,483.69 C257.43,480.68 264.59,472.08 258.57,455.01 C256.4,448.76 250.32,432.34 233.04,438.11z  M241.23 460.8 C237.5,462.02 232.49,462.04 230.16,455.43 C227.95,449.12 232.95,446.13 235.46,445.36 C240.55,443.68 244.06,445.93 245.86,450.92 C247.7,456.2 244.65,459.63 241.23,460.8z "/><path id="_R_G_L_0_G_L_2_G_D_6_P_0" fill="#191513" fill-opacity="1" fill-rule="nonzero" d=" M183.44 117.94 C193.65,117.94 202.87,113.68 209.24,106.87 C209.24,106.87 201.68,100.13 201.68,100.13 C197.16,104.93 190.67,107.96 183.44,107.96 C169.74,107.96 158.63,97.16 158.63,83.82 C158.63,70.39 169.74,59.57 183.44,59.57 C190.67,59.57 197.16,62.62 201.68,67.41 C201.68,67.41 209.22,60.64 209.22,60.64 C202.81,53.86 193.65,49.59 183.44,49.59 C164.09,49.59 148.4,64.9 148.4,83.82 C148.4,102.64 164.09,117.94 183.44,117.94z "/><path id="_R_G_L_0_G_L_2_G_D_7_P_0" fill="#191513" fill-opacity="1" fill-rule="nonzero" d=" M231.66 90.3 C231.66,90.3 239.14,128.42 239.14,128.42 C240.92,129.16 242.66,129.85 244.43,130.66 C244.43,130.66 255.04,105.27 255.04,105.27 C255.04,105.27 266.15,142.01 266.15,142.01 C270.49,144.74 274.76,147.75 278.82,150.91 C278.82,150.91 259.54,87.44 259.54,87.44 C259.54,87.44 253.53,82.81 253.53,82.81 C253.53,82.81 244.83,103.74 244.83,103.74 C244.83,103.74 237.6,70.24 237.6,70.24 C237.6,70.24 229.24,64.81 229.24,64.81 C229.24,64.81 211.78,120.59 211.78,120.59 C215.05,121.22 218.29,121.93 221.51,122.76 C221.51,122.76 231.66,90.3 231.66,90.3z "/><path id="_R_G_L_0_G_L_2_G_D_8_P_0" fill="#191513" fill-opacity="1" fill-rule="nonzero" d=" M105.66 122.02 C105.66,122.02 136.1,110.23 136.1,110.23 C136.1,110.23 139.97,122.75 139.97,122.75 C143.12,121.92 146.36,121.22 149.6,120.59 C149.6,120.59 132.38,64.81 132.38,64.81 C132.38,64.81 119.78,72.7 119.78,72.7 C119.78,72.7 80.08,152.85 80.08,152.85 C85.07,148.83 90.38,145.09 95.85,141.64 C95.85,141.64 105.66,122.02 105.66,122.02z  M126.65 79.79 C126.65,79.79 133.2,100.91 133.2,100.91 C133.2,100.91 112.09,109.08 112.09,109.08 C112.09,109.08 126.65,79.79 126.65,79.79z "/><path id="_R_G_L_0_G_L_2_G_D_9_P_0" fill="#191513" fill-opacity="1" fill-rule="nonzero" d=" M193.71 445.64 C183.44,446.51 176.28,452.39 177.25,463.85 C177.94,471.55 184.34,477.88 194.42,477.02 C197.97,476.76 201.95,475.66 204.06,472.35 C204.06,472.35 204.21,472.45 204.21,472.45 C204.96,482.27 200.85,485.23 196.66,486.07 C192.51,486.99 189.35,485.29 187.82,482.13 C187.82,482.13 187.82,482.06 187.82,482.06 C187.82,482.06 180.5,484.77 180.5,484.77 C182.71,490.8 189.12,494.08 197.21,493.45 C206.67,492.68 215.78,486.07 214.25,468.09 C213.74,461.49 211.94,444.19 193.71,445.64z  M196.02 469.51 C192.07,469.86 187.19,468.74 186.58,461.74 C186.05,455.02 191.63,453.39 194.31,453.22 C199.6,452.78 202.5,455.76 202.96,461.08 C203.44,466.65 199.6,469.27 196.02,469.51z "/><path id="_R_G_L_0_G_L_2_G_D_10_P_0" fill="#191513" fill-opacity="1" fill-rule="nonzero" d=" M154.41 443.96 C145.33,442.36 137.38,445.93 135.99,453.88 C135.2,458.15 136.85,461.45 140.63,464.02 C132.15,465.87 131.06,472.04 130.64,474.36 C129.48,480.72 132.71,489.29 146.09,491.66 C159.83,493.99 165.69,485.56 166.78,479.71 C167.83,473.71 165.59,470.31 161,467.19 C165.53,466.03 167.96,462.88 168.68,458.89 C169.81,452.47 165.13,445.82 154.41,443.96z  M156.63 478.38 C156.05,481.59 152.81,485.29 147.48,484.32 C142.81,483.53 139.69,479.98 140.51,475.45 C141.4,470.47 146.13,469.05 149.87,469.76 C155.57,470.65 157.25,475.1 156.63,478.38z  M159.09 458.24 C158.48,461.53 155.36,463.54 151.32,462.85 C146.91,462.04 144.8,458.6 145.27,455.91 C145.89,452.45 149.14,450.58 153.75,451.35 C157.02,451.94 159.72,454.69 159.09,458.24z "/><path id="_R_G_L_0_G_L_2_G_D_11_P_0" fill="#191513" fill-opacity="1" fill-rule="nonzero" d=" M105.02 439.42 C105.02,439.42 103.63,438.95 103.63,438.95 C103.63,438.95 101.64,444.48 101.64,444.48 C101.64,444.48 101.71,444.5 101.71,444.5 C101.71,444.5 100.73,447.18 100.73,447.18 C100.73,447.18 102.64,447.87 102.64,447.87 C107.68,449.63 111.12,449.63 113.42,448.7 C113.42,448.7 103.04,478.38 103.04,478.38 C103.04,478.38 112.94,481.65 112.94,481.65 C112.94,481.65 128.22,438.05 128.22,438.05 C128.22,438.05 119.23,435 119.23,435 C118.53,437.02 112.52,441.87 105.02,439.42z "/><path id="_R_G_L_0_G_L_2_G_D_12_P_0" fill="#ffffff" fill-opacity="1" fill-rule="nonzero" d=" M279.19 304.98 C279.19,304.98 279.19,390.31 279.19,390.31 C304.02,368.67 321.34,338.7 326.59,304.98 C326.59,304.98 279.19,304.98 279.19,304.98z "/><path id="_R_G_L_0_G_L_2_G_D_13_P_0" fill="#ffffff" fill-opacity="1" fill-rule="nonzero" d=" M188.79 426.59 C201.03,425.9 212.91,423.69 224.1,420.45 C224.1,420.45 224.1,304.98 224.1,304.98 C224.1,304.98 188.79,304.98 188.79,304.98 C188.79,304.98 188.79,426.59 188.79,426.59z "/><path id="_R_G_L_0_G_L_2_G_D_14_P_0" fill="#ffffff" fill-opacity="1" fill-rule="nonzero" d=" M325.89 256.43 C319.78,224.65 303.07,196.61 279.19,176.02 C279.19,176.02 279.19,256.43 279.19,256.43 C279.19,256.43 325.89,256.43 325.89,256.43z "/><path id="_R_G_L_0_G_L_2_G_D_15_P_0" fill="#ffffff" fill-opacity="1" fill-rule="nonzero" d=" M188.79 256.43 C188.79,256.43 224.1,256.43 224.1,256.43 C224.1,256.43 224.1,145.72 224.1,145.72 C212.73,142.5 201.03,140.28 188.79,139.6 C188.79,139.6 188.79,256.43 188.79,256.43z "/><path id="_R_G_L_0_G_L_2_G_D_16_P_0" fill="#ffffff" fill-opacity="1" fill-rule="nonzero" d=" M279.19 175.87 C279.19,175.87 279.02,175.87 279.02,175.87 C279.08,175.92 279.13,175.97 279.19,176.02 C279.19,176.02 279.19,175.87 279.19,175.87z "/><path id="_R_G_L_0_G_L_2_G_D_17_P_0" fill="#f62711" fill-opacity="1" fill-rule="nonzero" d=" M50.97 352.14 C50.97,352.14 50.97,214.01 50.97,214.01 C39.61,234.64 32.97,258.14 32.97,283.17 C32.97,308.04 39.61,331.54 50.97,352.14z "/><path id="_R_G_L_0_G_L_2_G_D_18_P_0" fill="#f62711" fill-opacity="1" fill-rule="nonzero" d=" M231.81 148.28 C231.81,148.28 231.81,264.09 231.81,264.09 C231.81,264.09 188.77,264.09 188.77,264.09 C188.77,264.09 188.77,297.31 188.77,297.31 C188.77,297.31 231.81,297.49 231.81,297.49 C231.81,297.49 231.81,417.9 231.81,417.9 C246.12,412.8 259.43,405.45 271.33,396.44 C271.33,396.44 271.33,297.49 271.33,297.49 C271.33,297.49 327.8,297.49 327.8,297.49 C328.33,292.7 328.5,287.95 328.5,283.17 C328.5,276.71 327.97,270.23 327.1,264.09 C327.1,264.09 271.33,264.09 271.33,264.09 C271.33,264.09 271.33,169.73 271.33,169.73 C259.43,160.71 246.12,153.39 231.81,148.28z "/><path id="_R_G_L_0_G_L_2_G_D_19_P_0" fill="#f62711" fill-opacity="1" fill-rule="nonzero" d=" M133.69 419.43 C142.61,422.33 151.71,424.37 161.32,425.73 C161.32,425.73 161.32,140.44 161.32,140.44 C151.71,141.63 142.61,143.86 133.69,146.76 C133.69,146.76 133.69,419.43 133.69,419.43z "/><path id="_R_G_L_0_G_L_2_G_D_20_P_0" fill="#f62711" fill-opacity="1" fill-rule="nonzero" d=" M78.61 386.89 C87.01,394.73 96.1,401.36 106.06,407.18 C106.06,407.18 106.06,159.01 106.06,159.01 C96.1,164.63 87.01,171.43 78.61,179.28 C78.61,179.28 78.61,386.89 78.61,386.89z "/></g></g><g id="_R_G_L_0_G_L_1_G_M"><g id="_R_G_L_0_G_L_1_G" transform=" translate(1315.284, 326.897) scale(4.55, 4.55) translate(-297.524, -97.822)"><path id="_R_G_L_0_G_L_1_G_D_0_P_0" fill="#ec250a" fill-opacity="1" fill-rule="nonzero" d=" M360.27 46.77 C360.27,46.77 251.43,79.35 251.43,79.35 C241.82,82.14 234.74,88.47 234.75,98.18 C234.77,107.3 241.2,114.17 249.82,116.68 C249.82,116.68 249.82,116.68 249.83,116.68 C251.39,117.14 360.3,148.87 360.3,148.87 C360.3,148.87 360.27,46.77 360.27,46.77z "/><path id="_R_G_L_0_G_L_1_G_D_1_P_0" fill="#ffffff" fill-opacity="1" fill-rule="nonzero" d=" M272.08 91.53 C271.73,93.2 270.52,94.28 267.46,94.28 C267.46,94.28 264.32,94.28 264.32,94.28 C264.32,94.28 265.51,88.78 265.51,88.78 C265.51,88.78 268.6,88.78 268.6,88.78 C271.91,88.78 272.46,89.75 272.08,91.53z  M270.86 101.76 C270.41,103.85 268.88,104.79 265.23,104.79 C265.23,104.79 262.1,104.79 262.1,104.79 C262.1,104.79 263.38,98.74 263.38,98.74 C263.38,98.74 266.52,98.74 266.52,98.74 C270.17,98.74 271.28,99.67 270.86,101.76z  M324.87 84.12 C320.06,84.12 318.87,87.55 318.87,87.55 C318.87,87.55 313.7,99.81 313.7,99.81 C313.7,99.81 313.59,99.81 313.59,99.81 C313.59,99.81 312.27,84.12 312.27,84.12 C312.27,84.12 304.14,84.12 304.14,84.12 C300.24,84.12 298.67,87.67 298.67,87.67 C298.67,87.67 292.47,99.81 292.47,99.81 C292.47,99.81 292.37,99.81 292.37,99.81 C292.37,99.81 292.34,84.12 292.34,84.12 C292.34,84.12 286.82,84.12 286.82,84.12 C283.17,84.12 282.38,86.09 282.22,87.21 C281.16,85.19 278.25,84.12 273.06,84.12 C273.06,84.12 259.97,84.12 259.97,84.12 C255.73,84.12 255.35,87.28 255.35,87.28 C255.35,87.28 250.58,109.24 250.58,109.24 C250.58,109.24 269.09,109.24 269.09,109.24 C274.52,109.24 276.26,108.69 278.21,107.29 C279.53,106.35 280.6,104.72 281.02,102.77 C281.93,98.46 278.87,96.75 275.39,96.54 C275.39,96.54 275.39,96.47 275.39,96.47 C278.56,95.74 281.26,94.34 282.27,91.52 C282.27,91.52 282.67,109.24 282.67,109.24 C282.67,109.24 291.51,109.24 291.51,109.24 C296.57,109.24 298.44,104.63 298.44,104.63 C298.44,104.63 303.85,93.97 303.85,93.97 C303.85,93.97 303.96,93.97 303.96,93.97 C303.96,93.97 305.21,109.24 305.21,109.24 C305.21,109.24 313.1,109.24 313.1,109.24 C318.82,109.24 320.76,104.28 320.76,104.28 C320.76,104.28 327.71,88.79 327.71,88.79 C327.71,88.79 323.37,109.24 323.37,109.24 C323.37,109.24 328.09,109.24 328.09,109.24 C334.18,109.24 334.99,104.38 334.99,104.38 C334.99,104.38 335.94,99.92 335.94,99.92 C335.94,99.92 342.71,99.92 342.71,99.92 C347.92,99.92 348.67,95.95 348.67,95.95 C348.67,95.95 348.95,94.63 348.95,94.63 C348.95,94.63 337.05,94.63 337.05,94.63 C337.05,94.63 338.16,89.41 338.16,89.41 C338.16,89.41 345.64,89.41 345.64,89.41 C350.75,89.41 351.48,85.63 351.48,85.63 C351.48,85.63 351.8,84.12 351.8,84.12 C351.8,84.12 324.87,84.12 324.87,84.12z "/></g></g><g id="_R_G_L_0_G_L_0_G" transform=" translate(911.671, 3.582)"><path id="_R_G_L_0_G_L_0_G_D_0_P_0" fill="#ffffff" fill-opacity="1" fill-rule="nonzero" d=" M0.25 0.25 C0.25,0.25 0.25,7.85 0.25,7.85 C0.25,7.85 0.25,15.45 0.25,15.45 C0.25,15.45 0.25,23.04 0.25,23.04 C0.25,23.04 0.25,30.64 0.25,30.64 C0.25,30.64 0.25,38.24 0.25,38.24 C0.25,38.24 1.47,38.24 1.47,38.24 C1.47,38.24 1.47,30.64 1.47,30.64 C1.47,30.64 1.47,23.04 1.47,23.04 C1.47,23.04 1.47,15.45 1.47,15.45 C1.47,15.45 1.47,7.85 1.47,7.85 C1.47,7.85 1.47,0.25 1.47,0.25 C1.47,0.25 0.25,0.25 0.25,0.25z "/></g></g></g><g id="time_group"/></svg>