<svg width="16" height="17" viewBox="0 0 16 17" fill="none" xmlns="http://www.w3.org/2000/svg">
<g clip-path="url(#clip0_663_3813)">
<path d="M5.96351 13.8513C6.28199 13.5195 6.28199 12.9835 5.96351 12.6517L2.79495 9.35084L15.1834 9.35084C15.6325 9.35084 16 8.96801 16 8.5001C16 8.03219 15.6325 7.64936 15.1834 7.64936L2.78678 7.64936L5.95534 4.34849C6.27383 4.0167 6.27383 3.48073 5.95534 3.14894C5.63685 2.81715 5.12237 2.81715 4.80388 3.14894L0.238866 7.90458C-0.0796228 8.23637 -0.0796227 8.77234 0.238866 9.10412L4.81205 13.8513C5.12237 14.183 5.64502 14.183 5.96351 13.8513Z" fill="#90949C"/>
</g>
<defs>
<clipPath id="clip0_663_3813">
<rect width="16" height="16" fill="white" transform="translate(0 0.5)"/>
</clipPath>
</defs>
</svg>
