<svg width="264" height="82" viewBox="0 0 264 82" fill="none" xmlns="http://www.w3.org/2000/svg">
<g filter="url(#filter0_d_758_5018)">
<path d="M84.297 5.1656C87.9737 2.70707 92.1979 1.04365 96.5819 0.468041C104.076 -0.297813 111.55 1.14609 118.88 2.58511C129.581 4.71194 140.383 6.49243 151.292 7.01926C156.936 7.18999 162.623 7.16072 168.179 6.01926C168.16 7.53146 166.382 7.99975 165.345 8.72658C158.627 12.0339 150.953 12.6241 143.585 12.5607C132.705 12.7315 122.048 10.2339 111.303 8.92658C104.4 8.10707 97.3763 7.22902 90.4539 8.33146C87.0097 8.94121 83.4201 9.98999 80.8527 12.5119C77.7524 15.6973 76.4639 20.5998 77.6846 24.9022C78.5275 27.5315 80.9787 29.2729 83.4637 30.1802C84.1032 30.4876 85.0284 30.5705 85.1495 31.4729C81.0804 31.4388 76.895 28.9168 75.5628 24.9266C74.1968 20.868 75.1608 16.3461 77.1614 12.668C78.76 9.53146 81.405 7.08268 84.297 5.1656Z" fill="#CAAB72"/>
<path d="M214.626 13.961C217.179 10.9659 220.11 7.86343 224.063 6.90733C226.189 6.34148 228.941 7.15123 229.619 9.4683C230.268 12.1317 228.839 14.7122 227.953 17.1512C222.634 29.1366 214.423 39.6244 205.17 48.7805C204.855 50.8049 204.071 53.0927 205.224 55C206.207 56.4732 208.348 56.1561 209.661 55.322C212.17 53.6829 214.156 51.3903 216.278 49.2976C222.285 42.922 227.841 36.1366 233.417 29.3903C233.955 28.5073 235.636 28.5073 235.558 29.7854C236.541 35.6244 238.344 41.4049 238.038 47.3854C237.937 50.6585 237.108 54.2098 234.575 56.4537C232.966 57.9415 230.782 58.4146 228.713 58.8439C234.376 59.7317 240.397 59.1415 245.465 56.2976C251.413 52.9951 255.904 46.9464 256.795 40.1024C257.672 33.7659 256.335 26.6439 251.733 21.9659C251.893 21.7756 252.208 21.3903 252.368 21.1951C256.752 24.2293 259.488 29.2585 260.254 34.5024C261.276 39.9903 259.74 45.7903 256.475 50.2585C253.172 54.7463 248.473 58.2781 243.105 59.8146C238.155 61.1415 232.87 61.2976 227.865 60.1756C224.499 59.3463 220.89 57.7317 219.291 54.4244C218.899 53.4781 218.293 52.0342 219.364 51.322C220.168 50.9659 221.103 51.5268 221.486 52.2585C221.946 53.3073 221.757 54.639 222.6 55.5122C223.724 56.8634 225.778 56.6342 227.202 55.9366C229.004 54.8634 229.847 52.761 230.259 50.7854C231.179 46.1464 230.612 41.3805 229.915 36.7561C223.913 43.8439 218.138 51.2829 210.736 56.9707C208.125 58.9561 204.386 59.9464 201.339 58.4195C199.711 57.6585 198.873 55.9951 198.117 54.4585C196.281 56.2195 194.368 58.0829 191.844 58.7415C189.175 59.5951 185.953 59.5024 183.725 57.6293C182.485 56.5951 182.005 54.9903 181.647 53.4732C179.36 56.3171 176.216 58.6634 172.559 59.2488C169.89 59.7024 166.853 59.0585 164.978 56.9854C163.743 55.6829 163.195 53.9122 162.808 52.1951C161.006 54.5122 159.049 56.8244 156.52 58.361C154.151 59.7024 150.687 59.922 148.759 57.7122C146.89 55.4683 147.175 52.2585 147.883 49.6098C149.375 44.4585 152.407 39.8488 153.604 34.6098C153.962 32.6244 151.298 32.5805 150.15 33.4195C145.107 36.4049 140.302 40.5561 138.209 46.2195C136.494 50.3659 134.76 54.5073 133.04 58.6585C130.487 58.6585 127.934 58.6585 125.381 58.6585C126.006 57.1707 126.621 55.6781 127.266 54.2C125.173 56.2537 122.824 58.2439 119.99 59.1317C117.35 59.9707 114.201 58.6781 113.106 56.0683C111.793 52.839 112.525 49.1756 113.765 46.039C115.911 40.8488 118.086 35.6732 120.242 30.4878C122.79 30.4878 125.338 30.4878 127.886 30.4878C125.057 37.4146 122.155 44.3171 119.355 51.2537C118.851 52.8195 118.105 54.7512 119.171 56.2439C120.164 56.8439 121.37 56.1707 122.247 55.6244C124.907 53.7707 127.082 51.3122 129.325 48.9951C132.066 42.8927 134.498 36.6439 137.114 30.4829C139.657 30.4927 142.2 30.4781 144.744 30.4927C143.93 32.5268 143.082 34.5512 142.225 36.5659C145.436 33.2342 149.476 30.4146 154.137 29.7512C156.331 29.3903 159.005 29.9122 160.279 31.9268C161.408 33.8878 161.156 36.3268 160.453 38.3903C158.894 42.9951 156.854 47.4146 154.795 51.8098C154.253 53.1805 153.555 54.5951 153.652 56.1073C153.89 57.2732 155.202 56.7707 155.885 56.3659C158.811 54.4537 160.836 51.5073 162.759 48.6439C163.563 42.4439 167.153 36.8439 171.915 32.9366C175.301 30.2342 179.67 28.1756 184.079 29.0878C186.152 29.4878 187.789 30.9951 188.787 32.8146C189.184 31.8732 189.591 30.9366 190.003 30C192.546 30 195.094 30 197.642 30C194.842 36.7707 192.013 43.5366 189.199 50.3024C188.598 51.8049 188.085 53.4829 188.54 55.0927C188.865 56.322 190.284 56.8732 191.427 56.4976C193.99 55.8488 195.957 53.9317 197.822 52.1561C197.72 49.6976 198.306 47.2927 198.868 44.9171C201.687 33.561 207.394 23.0683 214.626 13.961ZM226.65 9.9366C224.562 11.1903 223.191 13.3171 221.699 15.1951C215.14 24.2878 209.646 34.2683 206.26 45.0098C213.483 37.1366 219.805 28.3903 224.823 18.9317C226.03 16.4537 227.337 13.9415 227.788 11.1951C228.04 10.5366 227.362 9.47806 226.65 9.9366ZM181.162 32C178.576 33.3659 176.72 35.7317 175.107 38.1171C172.641 41.9073 170.694 46.1122 169.89 50.5903C169.594 52.4732 169.347 54.6439 170.481 56.3073C171.808 57.7951 174.07 56.9122 175.563 56.1317C180.542 53.2927 182.737 47.7073 184.917 42.6976C185.978 39.8342 187.62 36.7756 186.782 33.6488C186.07 31.322 183.052 30.7951 181.162 32Z" fill="#CAAB72"/>
<path d="M110.974 16.9709C113.512 14.7904 116.269 12.7221 119.389 11.5026L120.168 11.6587C117.824 14.4831 115.896 17.6196 113.881 20.6635C111.609 21.1513 109.317 21.6879 106.992 21.8099C107.801 19.8245 109.477 18.4196 110.974 16.9709Z" fill="#CAAB72"/>
<path d="M54.1408 24.5901C55.6328 22.4974 57.7158 20.6145 60.3462 20.2682C61.5718 20.0877 63.1607 20.2877 63.7226 21.5755C64.3718 22.9852 63.6112 24.4779 63.3739 25.8828C66.7454 26.2438 70.1364 26.273 73.5176 26.0877C73.4159 26.9121 72.6311 27.1901 72.0111 27.4974C68.717 29.0535 65.0984 29.8047 61.4749 29.9218C58.9705 34.1121 55.6086 37.7462 51.7671 40.7267C50.7305 41.3901 50.4253 42.6535 49.9021 43.7023C52.208 41.473 55.1242 39.3169 58.4909 39.5803C60.3947 39.6925 62.3372 41.3169 61.9497 43.395C61.4846 46.3364 59.8715 48.9218 58.7137 51.6243C58.1663 52.9999 57.1394 54.3706 57.3525 55.9121C59.7359 55.6438 61.3732 53.4389 62.5891 51.5511C63.6354 46.4242 67.3316 41.7072 72.326 40.0243C74.7335 39.3072 77.6934 39.2633 79.7085 40.9657C81.2635 42.3364 80.6193 44.7706 79.5293 46.234C76.802 49.9657 72.045 51.3023 67.7046 51.9511C67.3219 53.2974 67.1039 55.2633 68.6976 55.8974C70.8291 56.6486 73.1398 55.8145 75.0726 54.8633C76.3903 54.2584 77.2961 52.8535 78.8414 52.8047C78.9868 54.2194 77.6062 54.8925 76.647 55.595C73.6775 57.5706 69.7924 58.7121 66.3434 57.4096C64.7254 56.8438 63.6548 55.4291 62.9379 53.9316C61.1019 55.9267 58.8445 58.1999 55.9041 57.9218C53.5886 57.8291 52.1886 55.273 52.673 53.1413C53.5256 49.2243 56.0591 45.8877 56.8487 41.956C53.5062 42.3608 50.7886 44.9364 48.972 47.6584C46.9762 50.6096 45.5181 53.8779 44.1423 57.1511C42.4953 57.2682 40.8483 57.3608 39.1964 57.3072C40.5867 53.2828 42.4565 49.4389 44.0697 45.5023C42.6116 46.1413 41.1389 46.7999 39.5646 47.0877C39.4144 46.9169 39.114 46.5706 38.9639 46.3999C40.7272 44.7901 43.1686 44.195 45.1548 42.8877C47.325 38.273 49.2627 33.5511 51.6024 29.0194C43.8662 27.834 36.1639 25.7901 28.2824 26.1267C24.7897 26.2194 21.2825 28.2243 19.9019 31.5413C19.1317 33.1316 19.2334 34.9462 19.5967 36.6291C21.2631 36.4486 22.9634 36.3608 24.6202 36.6682C24.688 36.8779 24.8236 37.2974 24.8914 37.5072C23.2832 37.5462 21.6603 37.5511 20.086 37.9413C20.7399 38.9023 21.4617 39.8925 22.5565 40.3657C24.4651 41.3657 26.6741 40.9121 28.7087 40.7023C28.6554 42.2389 26.6111 42.1121 25.4921 42.2779C22.6098 42.6145 19.9649 40.9072 18.5746 38.4389C16.1234 39.7706 13.6916 41.5413 12.5726 44.1999C11.2017 47.2096 10.9256 50.9023 12.437 53.9072C14.1857 57.3608 18.778 58.8925 22.2416 57.2486C25.1966 55.8779 27.2942 53.195 28.9993 50.4925C32.4823 44.6877 34.8318 38.1706 39.1189 32.8682C41.0081 30.834 43.1686 28.5511 46.0364 28.156C45.1548 30.2389 43.6385 31.9608 42.7133 34.0243C40.2331 39.3901 38.5327 45.1218 35.5681 50.2535C32.9813 54.9218 28.3744 58.6096 23.0119 59.273C20.2555 59.5023 17.3441 59.5803 14.7477 58.473C10.1747 56.4438 7.77198 50.7999 8.97335 46.0096C10.1263 41.6096 13.7643 38.1803 18.0708 36.9706C17.2134 33.7901 17.8092 30.2389 19.7759 27.5901C22.261 24.2682 26.1848 22.0925 30.3121 21.7901C38.3632 20.9999 46.2883 23.1218 54.1408 24.5901ZM58.5587 25.2974C59.5227 25.4243 60.4867 25.5462 61.4507 25.6633C61.8915 24.4925 62.25 23.273 62.1773 22.0096C60.2736 21.9852 59.4791 23.9608 58.5587 25.2974ZM52.61 37.6145C55.1871 35.3608 57.5608 32.834 59.3629 29.8925C58.3359 29.7999 57.3041 29.7169 56.2771 29.6145C55.037 32.273 53.7872 34.9267 52.61 37.6145ZM68.3004 50.2925C72.4471 49.795 76.5065 47.3364 78.1148 43.3364C78.8414 41.8828 76.9861 40.7316 75.7508 41.3852C71.9481 42.8925 69.9717 46.795 68.3004 50.2925Z" fill="#CAAB72"/>
<path d="M102.215 29.795C104.715 29.1218 107.34 28.3072 109.937 28.7169C105.098 39.6389 100.258 50.9511 91.9504 59.7267C84.0155 67.8584 74.0946 74.1413 63.166 77.234C47.9698 81.7072 31.0295 80.2925 17.0201 72.7413C11.0811 69.6925 5.43757 65.3852 2.38088 59.273C0.162228 54.7462 -0.482053 48.9706 2.26946 44.5316C3.1947 43.2145 4.14901 41.595 5.87355 41.312C5.30678 43.0828 4.14417 44.6047 3.76148 46.4438C2.42932 51.4779 4.06666 56.8194 6.99257 60.9657C11.1489 67.1364 17.9647 70.8681 24.8532 73.1315C43.4985 79.1267 65.002 74.9901 80.1547 62.5169C90.3276 53.8291 96.1309 41.4535 102.215 29.795Z" fill="#CAAB72"/>
<path d="M130.583 20.0583C134.322 18.1412 137.922 15.9363 141.719 14.1168C140.484 16.3363 139.045 18.429 137.781 20.629C140.785 20.8876 143.793 21.0485 146.786 21.4144C142.775 22.7656 138.706 23.9168 134.642 25.0973C133.155 27.5168 131.673 29.9363 130.113 32.3071C128.97 30.5998 127.802 28.9168 126.635 27.2241C122.347 28.4388 118.036 29.5461 113.744 30.7363C117.087 28.2632 120.667 26.1315 124.193 23.9363C123.089 22.5022 121.941 21.0973 120.768 19.7119C124.043 19.7217 127.313 20.151 130.583 20.0583Z" fill="white"/>
<path d="M94.6094 27.717C102.239 23.9999 110.581 21.2975 119.15 21.5706C119.901 22.4731 120.657 23.3706 121.403 24.2731C120.056 25.0975 118.816 26.1121 117.387 26.7902C114.519 26.7511 111.632 26.7316 108.788 27.1853C99.7443 28.4975 91.4122 32.4975 83.1238 36.156C78.8367 38.078 73.9198 39.0438 69.3081 37.7999C72.3067 37.6194 75.3004 37.1365 78.1294 36.0975C83.9715 34.0536 89.1064 30.4926 94.6094 27.717Z" fill="white"/>
</g>
<defs>
<filter id="filter0_d_758_5018" x="0.190918" y="0" width="263.588" height="81.6495" filterUnits="userSpaceOnUse" color-interpolation-filters="sRGB">
<feFlood flood-opacity="0" result="BackgroundImageFix"/>
<feColorMatrix in="SourceAlpha" type="matrix" values="0 0 0 0 0 0 0 0 0 0 0 0 0 0 0 0 0 0 127 0" result="hardAlpha"/>
<feOffset dx="2.96907" dy="1.64948"/>
<feComposite in2="hardAlpha" operator="out"/>
<feColorMatrix type="matrix" values="0 0 0 0 0 0 0 0 0 0 0 0 0 0 0 0 0 0 0.14 0"/>
<feBlend mode="normal" in2="BackgroundImageFix" result="effect1_dropShadow_758_5018"/>
<feBlend mode="normal" in="SourceGraphic" in2="effect1_dropShadow_758_5018" result="shape"/>
</filter>
</defs>
</svg>
