<svg xmlns="http://www.w3.org/2000/svg" xmlns:xlink="http://www.w3.org/1999/xlink" preserveAspectRatio="xMidYMid meet" width="55" height="55" viewBox="0 0 55 55" style="width:100%;height:100%">
<defs>
<animateTransform repeatCount="indefinite" dur="2s" begin="0s" xlink:href="#_R_G_L_2_G" fill="freeze" attributeName="transform" from="0.9 0.9" to="0.9 0.9" type="scale" additive="sum" keyTimes="0;0.5;1" values="0.9 0.9;1 1;0.9 0.9" keySplines="0.167 0 0 1;0.167 0 0.833 1" calcMode="spline"/>
<animateTransform repeatCount="indefinite" dur="2s" begin="0s" xlink:href="#_R_G_L_2_G" fill="freeze" attributeName="transform" from="-27.75 -27.75" to="-27.75 -27.75" type="translate" additive="sum" keyTimes="0;1" values="-27.75 -27.75;-27.75 -27.75" keySplines="0 0 1 1" calcMode="spline"/>
<animateTransform repeatCount="indefinite" dur="2s" begin="0s" xlink:href="#_R_G_L_1_G" fill="freeze" attributeName="transform" from="1.2 1.2" to="1.1 1.1" type="scale" additive="sum" keyTimes="0;0.5;1" values="1.2 1.2;0.9 0.9;1.1 1.1" keySplines="0.167 0 0 1;0.167 0 0.833 1" calcMode="spline"/>
<animateTransform repeatCount="indefinite" dur="2s" begin="0s" xlink:href="#_R_G_L_1_G" fill="freeze" attributeName="transform" from="-27.75 -27.75" to="-27.75 -27.75" type="translate" additive="sum" keyTimes="0;1" values="-27.75 -27.75;-27.75 -27.75" keySplines="0 0 1 1" calcMode="spline"/>
<animateTransform repeatCount="indefinite" dur="2s" begin="0s" xlink:href="#_R_G_L_0_G_D_0_P_0_G_0_T_0" fill="freeze" attributeName="transform" from="0 0" to="1 1" type="scale" additive="sum" keyTimes="0;0.25;0.4333333;1" values="0 0;0 0;1 1;1 1" keySplines="1 0 0.833 0.833;1 0 0.833 0.833;0 0 0 0" calcMode="spline"/>
<animateTransform repeatCount="indefinite" dur="2s" begin="0s" xlink:href="#_R_G_L_0_G_D_1_P_0_G_0_T_0" fill="freeze" attributeName="transform" from="0 0" to="1 1" type="scale" additive="sum" keyTimes="0;0.1666667;0.35;1" values="0 0;0 0;1 1;1 1" keySplines="1 0 0.833 0.833;1 0 0.833 0.833;0 0 0 0" calcMode="spline"/>
<animateTransform repeatCount="indefinite" dur="2s" begin="0s" xlink:href="#_R_G_L_0_G_D_2_P_0_G_0_T_0" fill="freeze" attributeName="transform" from="0 0" to="1 1" type="scale" additive="sum" keyTimes="0;0.0833333;0.25;1" values="0 0;0 0;1 1;1 1" keySplines="1 0 0.833 0.833;1 0 0.833 0.833;0 0 0 0" calcMode="spline"/>
<animateTransform repeatCount="indefinite" dur="2s" begin="0s" xlink:href="#_R_G_L_0_G_D_3_P_0_G_0_T_0" fill="freeze" attributeName="transform" from="0 0" to="1 1" type="scale" additive="sum" keyTimes="0;0.1666667;1" values="0 0;1 1;1 1" keySplines="1 0 0.833 0.833;0 0 0 0" calcMode="spline"/>
<animate attributeType="XML" attributeName="opacity" dur="2s" from="0" to="1" xlink:href="#time_group"/>
</defs>
<g id="_R_G">
<g id="_R_G_L_2_G" transform=" translate(27.5, 27.5)">
<path id="_R_G_L_2_G_D_0_P_0" fill="#4cc764" fill-opacity="1" fill-rule="nonzero" d=" M27.75 0.25 C42.94,0.25 55.25,12.56 55.25,27.75 C55.25,42.94 42.94,55.25 27.75,55.25 C12.56,55.25 0.25,42.94 0.25,27.75 C0.25,12.56 12.56,0.25 27.75,0.25z "/>
</g><g id="_R_G_L_1_G" transform=" translate(27.5, 27.5)">
<path id="_R_G_L_1_G_D_0_P_0" fill="#ffffff" fill-opacity="1" fill-rule="nonzero" d=" M46.09 26.15 C46.09,17.94 37.85,11.25 27.73,11.25 C17.61,11.25 9.37,17.93 9.37,26.15 C9.37,33.51 15.9,39.68 24.72,40.85 C25.32,40.98 26.13,41.24 26.34,41.76 C26.53,42.22 26.46,42.95 26.4,43.42 C26.4,43.42 26.18,44.72 26.14,44.99 C26.06,45.45 25.77,46.81 27.73,45.98 C29.69,45.15 38.3,39.75 42.15,35.32 C44.81,32.4 46.09,29.44 46.09,26.15z "/>
</g>
<g id="_R_G_L_0_G" transform=" translate(27.5, 27.5) translate(-27.75, -27.75)">
<g id="_R_G_L_0_G_D_0_P_0_G_0_T_0" transform=" translate(37.4, 26.55)">
<path id="_R_G_L_0_G_D_0_P_0" fill="#4cc764" fill-opacity="1" fill-rule="nonzero" d=" M2.58 4.34 C2.77,4.34 2.93,4.18 2.93,3.99 C2.93,3.99 2.93,2.69 2.93,2.69 C2.93,2.5 2.77,2.34 2.58,2.34 C2.58,2.34 -0.93,2.34 -0.93,2.34 C-0.93,2.34 -0.93,0.99 -0.93,0.99 C-0.93,0.99 2.58,0.99 2.58,0.99 C2.77,0.99 2.93,0.83 2.93,0.64 C2.93,0.64 2.93,-0.66 2.93,-0.66 C2.93,-0.85 2.77,-1.01 2.58,-1.01 C2.58,-1.01 -0.93,-1.01 -0.93,-1.01 C-0.93,-1.01 -0.93,-2.36 -0.93,-2.36 C-0.93,-2.36 2.58,-2.36 2.58,-2.36 C2.77,-2.36 2.93,-2.52 2.93,-2.71 C2.93,-2.71 2.93,-4.01 2.93,-4.01 C2.93,-4.2 2.77,-4.36 2.58,-4.36 C2.58,-4.36 -2.58,-4.36 -2.58,-4.36 C-2.77,-4.36 -2.93,-4.2 -2.93,-4.01 C-2.93,-4.01 -2.93,4 -2.93,4 C-2.93,4.2 -2.77,4.36 -2.58,4.36 C-2.58,4.36 2.58,4.36 2.58,4.36 C2.58,4.36 2.58,4.34 2.58,4.34z "/>
</g>
<g id="_R_G_L_0_G_D_1_P_0_G_0_T_0" transform=" translate(29.435, 26.565)">
<path id="_R_G_L_0_G_D_1_P_0" fill="#4cc764" fill-opacity="1" fill-rule="nonzero" d=" M3.44 -4.38 C3.44,-4.38 2.13,-4.38 2.13,-4.38 C1.94,-4.38 1.79,-4.23 1.79,-4.03 C1.79,-4.03 1.79,0.73 1.79,0.73 C1.79,0.73 -1.88,-4.22 -1.88,-4.22 C-1.88,-4.22 -1.9,-4.24 -1.91,-4.26 C-1.91,-4.26 -1.92,-4.28 -1.93,-4.28 C-1.93,-4.28 -1.94,-4.29 -1.95,-4.3 C-1.95,-4.3 -1.96,-4.31 -1.97,-4.32 C-1.97,-4.32 -1.98,-4.32 -1.98,-4.32 C-1.98,-4.32 -1.99,-4.32 -2,-4.32 C-2,-4.32 -2.01,-4.32 -2.01,-4.32 C-2.01,-4.32 -2.03,-4.32 -2.03,-4.32 C-2.03,-4.32 -2.04,-4.32 -2.04,-4.32 C-2.04,-4.32 -2.06,-4.32 -2.06,-4.32 C-2.06,-4.32 -2.08,-4.32 -2.08,-4.32 C-2.08,-4.32 -2.1,-4.32 -2.1,-4.32 C-2.1,-4.32 -2.1,-4.32 -2.1,-4.32 C-2.1,-4.32 -2.12,-4.32 -2.12,-4.32 C-2.12,-4.32 -2.14,-4.32 -2.14,-4.32 C-2.14,-4.32 -2.15,-4.32 -2.15,-4.32 C-2.15,-4.32 -3.44,-4.32 -3.44,-4.32 C-3.63,-4.32 -3.79,-4.16 -3.79,-3.97 C-3.79,-3.97 -3.79,4.04 -3.79,4.04 C-3.79,4.23 -3.63,4.39 -3.44,4.39 C-3.44,4.39 -2.14,4.39 -2.14,4.39 C-1.95,4.39 -1.79,4.23 -1.79,4.04 C-1.79,4.04 -1.79,-0.72 -1.79,-0.72 C-1.79,-0.72 1.88,4.24 1.88,4.24 C1.88,4.24 1.97,4.33 1.97,4.33 C1.97,4.33 1.98,4.33 1.99,4.34 C1.99,4.34 2,4.34 2,4.34 C2,4.34 2.02,4.34 2.02,4.34 C2.02,4.34 2.04,4.34 2.04,4.34 C2.04,4.34 2.05,4.34 2.05,4.34 C2.05,4.34 2.07,4.34 2.07,4.34 C2.09,4.34 2.13,4.35 2.15,4.35 C2.15,4.35 3.45,4.35 3.45,4.35 C3.64,4.35 3.8,4.19 3.8,4 C3.8,4 3.8,-4.01 3.8,-4.01 C3.8,-4.2 3.64,-4.36 3.45,-4.36 C3.45,-4.36 3.44,-4.38 3.44,-4.38z "/>
</g>
<g id="_R_G_L_0_G_D_2_P_0_G_0_T_0" transform=" translate(23.36, 26.535)">
<path id="_R_G_L_0_G_D_2_P_0" fill="#4cc764" fill-opacity="1" fill-rule="nonzero" d=" M-0.65 -4.36 C-0.65,-4.36 0.65,-4.36 0.65,-4.36 C0.84,-4.36 1,-4.2 1,-4 C1,-4 1,4.01 1,4.01 C1,4.2 0.84,4.36 0.65,4.36 C0.65,4.36 -0.65,4.36 -0.65,4.36 C-0.84,4.36 -1,4.2 -1,4.01 C-1,4.01 -1,-4 -1,-4 C-1,-4.2 -0.84,-4.36 -0.65,-4.36z "/>
</g>
<g id="_R_G_L_0_G_D_3_P_0_G_0_T_0" transform=" translate(18.32, 26.54)">
<path id="_R_G_L_0_G_D_3_P_0" fill="#4cc764" fill-opacity="1" fill-rule="nonzero" d=" M2.58 4.35 C2.77,4.35 2.93,4.19 2.93,4 C2.93,4 2.93,2.7 2.93,2.7 C2.93,2.51 2.77,2.35 2.58,2.35 C2.58,2.35 -0.93,2.35 -0.93,2.35 C-0.93,2.35 -0.93,-4.01 -0.93,-4.01 C-0.93,-4.2 -1.09,-4.36 -1.28,-4.36 C-1.28,-4.36 -2.58,-4.36 -2.58,-4.36 C-2.77,-4.36 -2.93,-4.2 -2.93,-4.01 C-2.93,-4.01 -2.93,4 -2.93,4 C-2.93,4.2 -2.77,4.36 -2.58,4.36 C-2.58,4.36 2.58,4.36 2.58,4.36 C2.58,4.36 2.58,4.35 2.58,4.35z "/>
s</g></g></g><g id="time_group"/>
</svg>